<svg width="81" height="81" viewBox="0 0 81 81" fill="none" xmlns="http://www.w3.org/2000/svg">
<g clip-path="url(#clip0_1_1187)">
<mask id="mask0_1_1187" style="mask-type:luminance" maskUnits="userSpaceOnUse" x="0" y="0" width="81" height="81">
<path d="M80.3199 0.150024H0.399902V80.07H80.3199V0.150024Z" fill="white"/>
</mask>
<g mask="url(#mask0_1_1187)">
<path d="M40.4328 80.07H40.2874C34.9673 80.0754 29.7009 79.0075 24.8031 76.9304C20.0533 74.9279 15.7389 72.0193 12.1018 68.3666C8.44784 64.7295 5.53903 60.4141 3.53797 55.6626C1.44968 50.7444 0.382099 45.4532 0.400127 40.11C0.383465 34.7659 1.45158 29.474 3.53974 24.5548C5.54074 19.8042 8.44957 15.4895 12.1036 11.8535C15.7393 8.19871 20.0544 5.28978 24.8057 3.28966C29.6961 1.21214 34.9562 0.144219 40.2696 0.150048H40.4506C45.763 0.144711 51.0222 1.21262 55.9119 3.28966C60.6625 5.29066 64.9771 8.19949 68.6131 11.8535C72.2672 15.4899 75.1765 19.8044 77.1788 24.5548C79.2669 29.4741 80.3355 34.7658 80.3201 40.11C80.3358 45.4533 79.2674 50.7442 77.1796 55.6626C75.1765 60.4126 72.2673 64.7269 68.614 68.3639C64.978 72.0179 60.6634 74.9268 55.9127 76.9278C51.0171 79.0071 45.7518 80.0759 40.4328 80.07ZM40.3601 3.78278C30.7341 3.81057 21.5107 7.64724 14.7039 14.4539C7.89733 21.2606 4.06065 30.484 4.03286 40.11C4.05946 49.7365 7.89529 58.9611 14.7022 65.768C21.5091 72.5749 30.7337 76.4107 40.3601 76.4373C49.9869 76.4119 59.2118 72.5761 66.0189 65.7689C72.8261 58.9617 76.662 49.7368 76.6874 40.11C76.6608 30.4837 72.825 21.2591 66.018 14.4522C59.2111 7.64521 49.9865 3.80938 40.3601 3.78278Z" fill="url(#paint0_linear_1_1187)"/>
<path d="M51.9392 47.7963H54.9475V55.4646H51.9392V47.7963ZM45.9225 40.1279H48.9308V55.4646H45.9225V40.1279ZM32.3849 55.4646C30.3909 55.4622 28.4794 54.6535 27.0694 53.2159C25.6596 51.7784 24.8664 49.8293 24.864 47.7963H27.8724C27.8724 48.7063 28.137 49.5958 28.6329 50.3524C29.1287 51.1091 29.8335 51.6988 30.658 52.0471C31.4826 52.3953 32.3899 52.4864 33.2652 52.3089C34.1405 52.1314 34.9447 51.6932 35.5757 51.0496C36.2068 50.4062 36.6366 49.5864 36.8107 48.6939C36.9848 47.8013 36.8954 46.8763 36.5539 46.0356C36.2124 45.1949 35.634 44.4762 34.8919 43.9706C34.1498 43.4651 33.2774 43.1952 32.3849 43.1952V40.1279C34.3796 40.1279 36.2925 40.9358 37.703 42.374C39.1134 43.8121 39.9058 45.7625 39.9058 47.7963C39.9058 49.83 39.1134 51.7805 37.703 53.2186C36.2925 54.6567 34.3796 55.4646 32.3849 55.4646Z" fill="url(#paint1_linear_1_1187)"/>
<path d="M57.956 18.6565H21.8558C21.0579 18.6565 20.2927 18.9797 19.7285 19.555C19.1644 20.1302 18.8474 20.9103 18.8474 21.7239V58.5319C18.8474 59.3455 19.1644 60.1256 19.7285 60.7009C20.2927 61.2761 21.0579 61.5993 21.8558 61.5993H57.956C58.7535 61.598 59.518 61.2745 60.0819 60.6995C60.6458 60.1245 60.9632 59.345 60.9643 58.5319V21.7239C60.9643 20.9103 60.6474 20.1302 60.0832 19.555C59.5191 18.9797 58.7538 18.6565 57.956 18.6565ZM57.956 32.4596H36.8975V21.7239H57.956V32.4596ZM33.8892 21.7239V32.4596H21.8558V21.7239H33.8892ZM21.8558 58.5319V35.5269H57.956L57.959 58.5319H21.8558Z" fill="url(#paint2_linear_1_1187)"/>
</g>
</g>
<defs>
<linearGradient id="paint0_linear_1_1187" x1="-18.8609" y1="82.3878" x2="70.0901" y2="10.2995" gradientUnits="userSpaceOnUse">
<stop stop-color="#03DAF2"/>
<stop offset="1" stop-color="#13E780"/>
</linearGradient>
<linearGradient id="paint1_linear_1_1187" x1="17.6139" y1="55.9094" x2="33.342" y2="30.9068" gradientUnits="userSpaceOnUse">
<stop stop-color="#03DAF2"/>
<stop offset="1" stop-color="#13E780"/>
</linearGradient>
<linearGradient id="paint2_linear_1_1187" x1="8.69724" y1="62.8446" x2="56.292" y2="25.0145" gradientUnits="userSpaceOnUse">
<stop stop-color="#03DAF2"/>
<stop offset="1" stop-color="#13E780"/>
</linearGradient>
<clipPath id="clip0_1_1187">
<rect width="79.92" height="79.92" fill="white" transform="translate(0.399902 0.150024)"/>
</clipPath>
</defs>
</svg>
