<svg width="89" height="89" viewBox="0 0 89 89" fill="none" xmlns="http://www.w3.org/2000/svg">
<g clip-path="url(#clip0_1_1568)">
<g clip-path="url(#clip1_1_1568)">
<mask id="mask0_1_1568" style="mask-type:luminance" maskUnits="userSpaceOnUse" x="0" y="0" width="89" height="89">
<path d="M88.3701 0.0900879H0.370117V88.0901H88.3701V0.0900879Z" fill="white"/>
</mask>
<g mask="url(#mask0_1_1568)">
<path d="M44.4504 88.0901H44.2903C38.4323 88.096 32.6335 86.9202 27.2405 84.6331C22.0105 82.4281 17.2599 79.2254 13.2551 75.2034C9.23171 71.1986 6.02882 66.4469 3.82545 61.2151C1.52603 55.7996 0.350514 49.9735 0.370364 44.0901C0.352018 38.2057 1.52812 32.3788 3.8274 26.9622C6.0307 21.7313 9.23362 16.9804 13.2571 12.9768C17.2603 8.95251 22.0117 5.74948 27.2434 3.54715C32.6282 1.25959 38.4201 0.0836955 44.2707 0.090114H44.47C50.3195 0.0842371 56.1104 1.26012 61.4944 3.54715C66.7253 5.75045 71.4761 8.95337 75.4797 12.9768C79.5033 16.9808 82.7067 21.7315 84.9114 26.9622C87.2106 32.3789 88.3873 38.2056 88.3703 44.0901C88.3876 49.9736 87.2112 55.7994 84.9123 61.2151C82.7067 66.4453 79.5034 71.1958 75.4807 75.2005C71.4771 79.2239 66.7263 82.4269 61.4953 84.6302C56.1047 86.9197 50.3071 88.0966 44.4504 88.0901ZM44.3703 4.09012C33.7711 4.12072 23.6152 8.34528 16.1203 15.8401C8.62554 23.335 4.40097 33.4909 4.37037 44.0901C4.39966 54.6898 8.6233 64.847 16.1184 72.3421C23.6135 79.8372 33.7707 84.0608 44.3703 84.0901C54.9704 84.0621 65.1279 79.8385 72.6233 72.3431C80.1187 64.8477 84.3424 54.6902 84.3703 44.0901C84.3411 33.4905 80.1174 23.3333 72.6223 15.8382C65.1272 8.34305 54.97 4.11941 44.3703 4.09012Z" fill="url(#paint0_linear_1_1568)"/>
<path d="M44.3701 57.014C43.8111 57.014 43.2894 56.8636 42.8049 56.6005L37.8484 53.6303C37.103 53.2168 37.4757 53.0664 37.6993 52.9912C38.7055 52.6528 38.8918 52.5776 39.9353 51.9761C40.0471 51.9009 40.1962 51.9385 40.308 52.0137L44.1092 54.3071C44.2583 54.3823 44.4446 54.3823 44.5564 54.3071L59.426 45.6222C59.5751 45.5471 59.6496 45.3967 59.6496 45.2087V27.8766C59.6496 27.6887 59.5751 27.5383 59.426 27.4631L44.5564 18.8159C44.4074 18.7407 44.221 18.7407 44.1092 18.8159L29.2397 27.4631C29.0906 27.5383 29.0161 27.7263 29.0161 27.8766V45.2087C29.0161 45.3591 29.0906 45.5471 29.2397 45.6222L33.3018 47.9908C35.5005 49.1187 36.8794 47.8029 36.8794 46.487V29.3805C36.8794 29.1549 37.0658 28.9293 37.3266 28.9293H39.2272C39.4508 28.9293 39.6744 29.1173 39.6744 29.3805V46.487C39.6744 49.4571 38.072 51.1865 35.2769 51.1865C34.4198 51.1865 33.749 51.1865 31.8484 50.2466L27.9353 47.9908C26.9664 47.4269 26.3701 46.3742 26.3701 45.2463V27.9142C26.3701 26.7863 26.9664 25.7336 27.9353 25.1697L42.8049 16.4849C43.7366 15.9585 45.0036 15.9585 45.9353 16.4849L60.8049 25.1697C61.7738 25.7336 62.3701 26.7863 62.3701 27.9142V45.2463C62.3701 46.3742 61.7738 47.4269 60.8049 47.9908L45.9353 56.6757C45.4508 56.9012 44.8918 57.014 44.3701 57.014ZM48.954 45.0959C42.4322 45.0959 41.0906 42.0882 41.0906 39.5316C41.0906 39.306 41.2769 39.0804 41.5378 39.0804H43.4757C43.6993 39.0804 43.8856 39.2308 43.8856 39.4564C44.1838 41.449 45.0409 42.4265 48.9912 42.4265C52.1217 42.4265 53.4633 41.7122 53.4633 40.0204C53.4633 39.0428 53.0906 38.3285 48.2086 37.8397C44.1465 37.4262 41.6123 36.5239 41.6123 33.253C41.6123 30.2076 44.1465 28.403 48.3949 28.403C53.1651 28.403 55.513 30.0572 55.8111 33.6665C55.8111 33.7793 55.7738 33.8921 55.6993 34.0049C55.6248 34.0801 55.513 34.1553 55.4012 34.1553H53.4633C53.2769 34.1553 53.0906 34.0049 53.0533 33.8169C52.6061 31.7491 51.4508 31.0724 48.3949 31.0724C44.9664 31.0724 44.5564 32.2754 44.5564 33.1778C44.5564 34.2681 45.0409 34.6064 49.662 35.208C54.2459 35.8095 56.4074 36.6743 56.4074 39.9076C56.3701 43.2161 53.6869 45.0959 48.954 45.0959Z" fill="url(#paint1_linear_1_1568)"/>
<path d="M23.65 68.4025V63.8134H29.6249V63.545H23.65V59.3585H30.0027V59.0901H23.3701V68.6709H30.0587V68.4025H23.65ZM35.4459 61.7738L32.9692 64.9003L30.5484 61.7738H30.1846L32.8013 65.1016L29.9327 68.6709H30.2686L32.9692 65.3028L35.6838 68.6709H36.0336L33.1511 65.1016L35.7818 61.7738H35.4459ZM36.8732 71.0325V66.7386H36.9012C37.0691 67.3648 37.4003 67.868 37.8947 68.2482C38.3891 68.6284 39.0188 68.8185 39.7837 68.8185C40.2781 68.8185 40.7166 68.7223 41.099 68.53C41.4815 68.3376 41.801 68.076 42.0575 67.745C42.3141 67.414 42.51 67.0294 42.6452 66.591C42.7805 66.1527 42.8481 65.692 42.8481 65.2089C42.8481 64.6901 42.7782 64.2115 42.6382 63.7731C42.4983 63.3348 42.2954 62.9546 42.0296 62.6326C41.7637 62.3105 41.4419 62.0601 41.064 61.8811C40.6862 61.7022 40.2595 61.6128 39.7837 61.6128C39.4199 61.6128 39.0817 61.6642 38.7692 61.7671C38.4567 61.87 38.1792 62.0153 37.9366 62.2032C37.6941 62.391 37.4842 62.6124 37.307 62.8674C37.1297 63.1223 36.9945 63.4019 36.9012 63.706H36.8732V61.7738H36.5933V71.0325H36.8732ZM39.7837 68.5635C38.9068 68.5635 38.2025 68.275 37.6708 67.698C37.1391 67.121 36.8732 66.2913 36.8732 65.2089C36.8732 64.7616 36.9385 64.3367 37.0691 63.9342C37.1997 63.5316 37.3886 63.1783 37.6358 62.8741C37.883 62.57 38.1885 62.3284 38.5523 62.1495C38.9161 61.9706 39.3266 61.8811 39.7837 61.8811C40.2501 61.8811 40.6583 61.9706 41.0081 62.1495C41.3579 62.3284 41.6471 62.5722 41.8756 62.8808C42.1042 63.1894 42.2768 63.5428 42.3934 63.9409C42.51 64.339 42.5683 64.7616 42.5683 65.2089C42.5683 65.6115 42.5146 66.0118 42.4074 66.4099C42.3001 66.8079 42.1345 67.1658 41.9106 67.4833C41.6867 67.8009 41.3999 68.0603 41.0501 68.2616C40.7002 68.4629 40.2781 68.5635 39.7837 68.5635ZM44.3873 68.6709V64.7661C44.3873 64.3904 44.4433 64.0236 44.5553 63.6658C44.6672 63.308 44.8398 62.9926 45.073 62.7198C45.3062 62.4469 45.6024 62.2323 45.9615 62.0757C46.3207 61.9192 46.7475 61.8543 47.2419 61.8811V61.6128C46.8128 61.6038 46.4373 61.6486 46.1155 61.747C45.7936 61.8454 45.5161 61.9795 45.2829 62.1495C45.0497 62.3195 44.8631 62.5185 44.7232 62.7466C44.5832 62.9747 44.4806 63.2185 44.4153 63.4779H44.3873V61.7738H44.1075V68.6709H44.3873ZM47.5917 65.276H53.6086C53.6273 64.8019 53.5783 64.3457 53.4617 63.9073C53.3451 63.469 53.1585 63.0799 52.902 62.7399C52.6455 62.4 52.3143 62.1271 51.9085 61.9214C51.5027 61.7156 51.02 61.6128 50.4602 61.6128C50.0591 61.6128 49.6673 61.6933 49.2848 61.8543C48.9024 62.0153 48.5665 62.2501 48.2774 62.5588C47.9882 62.8674 47.755 63.2453 47.5777 63.6926C47.4005 64.1399 47.3119 64.6498 47.3119 65.2223C47.3119 65.7322 47.3725 66.2086 47.4938 66.6514C47.615 67.0942 47.8016 67.4789 48.0535 67.8054C48.3053 68.1319 48.6295 68.3846 49.026 68.5635C49.4224 68.7424 49.9005 68.8274 50.4602 68.8185C51.2812 68.8185 51.9715 68.5971 52.5312 68.1543C53.0909 67.7115 53.4221 67.0875 53.5247 66.2824H53.2448C53.1235 67.0428 52.8134 67.6131 52.3143 67.9932C51.8152 68.3734 51.1879 68.5635 50.4323 68.5635C49.9192 68.5635 49.4854 68.4785 49.1309 68.3086C48.7764 68.1386 48.4872 67.906 48.2634 67.6108C48.0395 67.3156 47.8739 66.969 47.7666 66.5709C47.6593 66.1728 47.601 65.7412 47.5917 65.276ZM53.3288 65.0076H47.5917C47.6197 64.5246 47.713 64.0907 47.8716 63.706C48.0302 63.3214 48.2377 62.9926 48.4942 62.7198C48.7508 62.4469 49.0493 62.239 49.3898 62.0958C49.7303 61.9527 50.0964 61.8811 50.4882 61.8811C50.9547 61.8811 51.3651 61.9639 51.7196 62.1294C52.0741 62.2949 52.3703 62.5207 52.6081 62.807C52.846 63.0933 53.0256 63.4265 53.1469 63.8067C53.2681 64.1869 53.3288 64.5872 53.3288 65.0076ZM59.4157 63.8134H59.6955C59.6955 63.0441 59.4623 62.485 58.9959 62.1361C58.5294 61.7872 57.8951 61.6128 57.0928 61.6128C56.6451 61.6128 56.2673 61.6664 55.9594 61.7738C55.6516 61.8811 55.3997 62.0198 55.2038 62.1898C55.0079 62.3597 54.868 62.5476 54.784 62.7533C54.7001 62.9591 54.6581 63.1559 54.6581 63.3437C54.6581 63.7195 54.7281 64.0191 54.868 64.2428C55.0079 64.4664 55.2271 64.6409 55.5256 64.7661C55.7309 64.8556 55.9641 64.9361 56.2253 65.0076C56.4865 65.0792 56.7897 65.1552 57.1348 65.2358C57.4427 65.3073 57.7458 65.3789 58.0444 65.4504C58.3429 65.522 58.6064 65.6182 58.835 65.7389C59.0635 65.8597 59.2501 66.014 59.3947 66.2019C59.5393 66.3897 59.6116 66.6357 59.6116 66.9399C59.6116 67.2351 59.5393 67.4856 59.3947 67.6913C59.2501 67.8971 59.0658 68.0648 58.842 68.1945C58.6181 68.3242 58.3685 68.4182 58.0933 68.4763C57.8181 68.5345 57.5499 68.5635 57.2887 68.5635C56.4398 68.5635 55.7892 68.3824 55.3367 68.0201C54.8843 67.6578 54.6581 67.0875 54.6581 66.3092H54.3782C54.3782 67.177 54.6231 67.8121 55.1129 68.2146C55.6026 68.6172 56.3279 68.8185 57.2887 68.8185C57.5966 68.8185 57.9068 68.7849 58.2193 68.7178C58.5318 68.6507 58.8116 68.5412 59.0588 68.3891C59.306 68.237 59.5066 68.0402 59.6605 67.7987C59.8145 67.5571 59.8914 67.2619 59.8914 66.9131C59.8914 66.5821 59.8238 66.3137 59.6885 66.1079C59.5533 65.9022 59.376 65.7322 59.1568 65.598C58.9376 65.4639 58.6904 65.3588 58.4152 65.2827C58.14 65.2067 57.8625 65.1329 57.5826 65.0613C57.1908 64.9629 56.848 64.8779 56.5541 64.8064C56.2603 64.7348 55.9874 64.6498 55.7355 64.5514C55.493 64.453 55.2994 64.3121 55.1548 64.1287C55.0102 63.9453 54.9379 63.6837 54.9379 63.3437C54.9379 63.2811 54.9566 63.1693 54.9939 63.0083C55.0312 62.8473 55.1199 62.684 55.2598 62.5185C55.3997 62.353 55.6143 62.2054 55.9035 62.0757C56.1926 61.946 56.5891 61.8811 57.0928 61.8811C57.438 61.8811 57.7528 61.9169 58.0374 61.9885C58.3219 62.0601 58.5668 62.1741 58.772 62.3307C58.9772 62.4872 59.1358 62.6862 59.2477 62.9278C59.3597 63.1693 59.4157 63.4645 59.4157 63.8134ZM65.8943 63.8134H66.1742C66.1742 63.0441 65.941 62.485 65.4746 62.1361C65.0081 61.7872 64.3738 61.6128 63.5715 61.6128C63.1238 61.6128 62.746 61.6664 62.4381 61.7738C62.1303 61.8811 61.8784 62.0198 61.6825 62.1898C61.4866 62.3597 61.3467 62.5476 61.2627 62.7533C61.1788 62.9591 61.1368 63.1559 61.1368 63.3437C61.1368 63.7195 61.2067 64.0191 61.3467 64.2428C61.4866 64.4664 61.7058 64.6409 62.0043 64.7661C62.2096 64.8556 62.4428 64.9361 62.704 65.0076C62.9652 65.0792 63.2684 65.1552 63.6135 65.2358C63.9214 65.3073 64.2245 65.3789 64.523 65.4504C64.8216 65.522 65.0851 65.6182 65.3136 65.7389C65.5422 65.8597 65.7288 66.014 65.8734 66.2019C66.0179 66.3897 66.0902 66.6357 66.0902 66.9399C66.0902 67.2351 66.0179 67.4856 65.8734 67.6913C65.7288 67.8971 65.5445 68.0648 65.3206 68.1945C65.0967 68.3242 64.8472 68.4182 64.572 68.4763C64.2968 68.5345 64.0286 68.5635 63.7674 68.5635C62.9185 68.5635 62.2679 68.3824 61.8154 68.0201C61.363 67.6578 61.1368 67.0875 61.1368 66.3092H60.8569C60.8569 67.177 61.1018 67.8121 61.5915 68.2146C62.0813 68.6172 62.8066 68.8185 63.7674 68.8185C64.0753 68.8185 64.3854 68.7849 64.698 68.7178C65.0105 68.6507 65.2903 68.5412 65.5375 68.3891C65.7847 68.237 65.9853 68.0402 66.1392 67.7987C66.2931 67.5571 66.3701 67.2619 66.3701 66.9131C66.3701 66.5821 66.3025 66.3137 66.1672 66.1079C66.0319 65.9022 65.8547 65.7322 65.6355 65.598C65.4163 65.4639 65.169 65.3588 64.8939 65.2827C64.6187 65.2067 64.3411 65.1329 64.0613 65.0613C63.6695 64.9629 63.3267 64.8779 63.0328 64.8064C62.739 64.7348 62.4661 64.6498 62.2142 64.5514C61.9717 64.453 61.7781 64.3121 61.6335 64.1287C61.4889 63.9453 61.4166 63.6837 61.4166 63.3437C61.4166 63.2811 61.4353 63.1693 61.4726 63.0083C61.5099 62.8473 61.5985 62.684 61.7385 62.5185C61.8784 62.353 62.093 62.2054 62.3821 62.0757C62.6713 61.946 63.0678 61.8811 63.5715 61.8811C63.9167 61.8811 64.2315 61.9169 64.516 61.9885C64.8006 62.0601 65.0454 62.1741 65.2507 62.3307C65.4559 62.4872 65.6145 62.6862 65.7264 62.9278C65.8384 63.1693 65.8943 63.4645 65.8943 63.8134Z" fill="url(#paint2_linear_1_1568)"/>
</g>
</g>
</g>
<defs>
<linearGradient id="paint0_linear_1_1568" x1="-20.838" y1="90.6422" x2="77.1061" y2="11.2657" gradientUnits="userSpaceOnUse">
<stop stop-color="#03DAF2"/>
<stop offset="1" stop-color="#13E780"/>
</linearGradient>
<linearGradient id="paint1_linear_1_1568" x1="17.6941" y1="58.2008" x2="61.7082" y2="26.8226" gradientUnits="userSpaceOnUse">
<stop stop-color="#03DAF2"/>
<stop offset="1" stop-color="#13E780"/>
</linearGradient>
<linearGradient id="paint2_linear_1_1568" x1="13.0071" y1="71.3789" x2="21.3406" y2="47.0615" gradientUnits="userSpaceOnUse">
<stop stop-color="#03DAF2"/>
<stop offset="1" stop-color="#13E780"/>
</linearGradient>
<clipPath id="clip0_1_1568">
<rect width="88" height="88" fill="white" transform="translate(0.370117 0.0900879)"/>
</clipPath>
<clipPath id="clip1_1_1568">
<rect width="88" height="88" fill="white" transform="translate(0.370117 0.0900879)"/>
</clipPath>
</defs>
</svg>
