<svg width="89" height="89" viewBox="0 0 89 89" fill="none" xmlns="http://www.w3.org/2000/svg">
<g clip-path="url(#clip0_1_1548)">
<g clip-path="url(#clip1_1_1548)">
<mask id="mask0_1_1548" style="mask-type:luminance" maskUnits="userSpaceOnUse" x="0" y="0" width="89" height="89">
<path d="M88.3701 0.0900879H0.370117V88.0901H88.3701V0.0900879Z" fill="white"/>
</mask>
<g mask="url(#mask0_1_1548)">
<path d="M44.4504 88.0901H44.2903C38.4323 88.096 32.6335 86.9202 27.2405 84.6331C22.0105 82.4281 17.2599 79.2254 13.2551 75.2034C9.23171 71.1986 6.02882 66.4469 3.82545 61.2151C1.52603 55.7996 0.350514 49.9735 0.370364 44.0901C0.352018 38.2057 1.52812 32.3788 3.8274 26.9622C6.0307 21.7313 9.23362 16.9804 13.2571 12.9768C17.2603 8.95251 22.0117 5.74948 27.2434 3.54715C32.6282 1.25959 38.4201 0.0836955 44.2707 0.090114H44.47C50.3195 0.0842371 56.1104 1.26012 61.4944 3.54715C66.7253 5.75045 71.4761 8.95337 75.4797 12.9768C79.5033 16.9808 82.7067 21.7315 84.9114 26.9622C87.2106 32.3789 88.3873 38.2056 88.3703 44.0901C88.3876 49.9736 87.2112 55.7994 84.9123 61.2151C82.7067 66.4453 79.5034 71.1958 75.4807 75.2005C71.4771 79.2239 66.7263 82.4269 61.4953 84.6302C56.1047 86.9197 50.3071 88.0966 44.4504 88.0901ZM44.3703 4.09012C33.7711 4.12072 23.6152 8.34528 16.1203 15.8401C8.62554 23.335 4.40097 33.4909 4.37037 44.0901C4.39966 54.6898 8.6233 64.847 16.1184 72.3421C23.6135 79.8372 33.7707 84.0608 44.3703 84.0901C54.9704 84.0621 65.1279 79.8385 72.6233 72.3431C80.1187 64.8477 84.3424 54.6902 84.3703 44.0901C84.3411 33.4905 80.1174 23.3333 72.6223 15.8382C65.1272 8.34305 54.97 4.11941 44.3703 4.09012Z" fill="url(#paint0_linear_1_1548)"/>
<path d="M67.2288 43.5008C69.7815 38.7399 70.3027 33.9749 68.175 30.29C66.0469 26.6047 61.6903 24.686 56.3127 24.5056C55.9221 23.8631 55.4992 23.2404 55.0459 22.6403C55.5137 22.0326 55.7689 21.2873 55.7721 20.5203C55.7749 18.5717 54.1979 16.9894 52.2493 16.9866C51.2942 16.985 50.3788 17.3711 49.7132 18.0565C48.3254 17.3643 46.7978 16.9983 45.2471 16.987C40.9641 16.987 37.0746 19.8559 34.219 24.502C28.8042 24.6646 24.404 26.5966 22.2718 30.2896C20.1396 33.983 20.6685 38.7378 23.2204 43.4992C21.0122 47.5739 20.3196 51.6567 21.5104 55.0938C20.1133 56.4496 20.0802 58.6816 21.436 60.0787C22.6507 61.3298 24.5969 61.5053 26.0154 60.4919C28.5523 61.8829 31.4018 62.6043 34.295 62.5885C37.1409 67.1643 40.9993 69.9867 45.2483 69.9867C49.4969 69.9867 53.3359 67.1776 56.1793 62.6205C57.4259 62.5889 58.6673 62.4478 59.8893 62.1991C60.9637 63.8279 63.1553 64.2775 64.7845 63.2032C65.7707 62.5525 66.3667 61.4515 66.372 60.2699C66.3683 59.9097 66.3089 59.5522 66.1957 59.2101C66.9805 58.5122 67.6493 57.6938 68.1778 56.786C70.2647 53.1698 69.9202 48.4671 67.2288 43.5008ZM66.6449 31.1731C68.3473 34.1217 68.0581 37.898 66.1936 41.7847C64.5204 39.2429 62.5107 36.9397 60.2197 34.9369C59.6333 31.928 58.6483 29.0106 57.2905 26.2618C61.5589 26.6026 64.9506 28.2387 66.6449 31.1731ZM55.242 60.8555C52.7758 60.7993 50.3258 60.4394 47.9474 59.7839C49.7314 59.054 51.4649 58.2053 53.1361 57.2445C54.815 56.2753 56.428 55.1948 57.9637 54.0113C57.3426 56.3966 56.4288 58.6954 55.242 60.8555ZM52.253 55.7148C50.0169 57.006 47.6659 58.0876 45.2305 58.9449C42.7894 58.0896 40.4336 57.008 38.1938 55.7148C35.967 54.433 33.8623 52.9498 31.9065 51.2839C30.9566 46.1825 30.9465 40.9509 31.8761 35.8459C33.8365 34.1573 35.9521 32.6567 38.1938 31.3648C40.4324 30.0676 42.7857 28.9807 45.2244 28.117C50.122 29.8553 54.6577 32.4796 58.6059 35.8592C59.0725 38.3747 59.3066 40.9283 59.3054 43.4866C59.3102 46.0867 59.0737 48.6818 58.5986 51.2378C56.6265 52.9227 54.5028 54.4217 52.2546 55.7148H52.253ZM32.5405 54.0541C34.0589 55.2211 35.652 56.2866 37.3103 57.2445C38.9775 58.2041 40.7049 59.0553 42.4817 59.792C40.1222 60.4394 37.6928 60.7952 35.2469 60.8522C34.069 58.7059 33.16 56.4225 32.5405 54.0541ZM29.8196 49.3575C28.0586 47.6305 26.5176 45.6928 25.2317 43.5885C26.5095 41.4729 28.0428 39.5231 29.7969 37.7823C29.2911 41.6234 29.2992 45.5149 29.8196 49.3539V49.3575ZM35.2081 26.1991C37.6791 26.2545 40.1339 26.616 42.516 27.2759C40.7275 28.0139 38.99 28.8695 37.3148 29.8375C35.6448 30.8015 34.0399 31.8731 32.5094 33.0457C33.1236 30.6616 34.0293 28.362 35.2064 26.1991H35.2081ZM57.9803 33.0821C56.4401 31.8945 54.8235 30.81 53.1405 29.8347C51.4649 28.8666 49.7265 28.011 47.9377 27.2731C50.3274 26.6107 52.79 26.2488 55.2695 26.1955C56.4531 28.3709 57.3637 30.6838 57.9803 33.0821ZM60.7012 37.8139C62.4432 39.5385 63.9656 41.4721 65.2325 43.5707C63.9579 45.6637 62.4307 47.5921 60.6851 49.3122C60.9439 47.381 61.0728 45.4348 61.072 43.4866C61.0708 41.5898 60.9459 39.695 60.6984 37.8139H60.7012ZM52.2388 18.7532C53.2145 18.7532 54.0055 19.5442 54.0055 20.5199C54.0055 21.4956 53.2145 22.2865 52.2388 22.2865C51.2631 22.2865 50.4722 21.4956 50.4722 20.5199C50.4722 19.5442 51.2631 18.7532 52.2388 18.7532ZM45.2471 18.7532C46.4933 18.7646 47.7217 19.0537 48.8422 19.5987C48.7557 19.8984 48.7096 20.2085 48.7055 20.5203C48.6991 22.4652 50.2708 24.0471 52.2158 24.0536C52.7156 24.0552 53.2101 23.9505 53.6662 23.7463C53.8567 23.9982 54.0423 24.2566 54.2234 24.5218C51.1592 24.6949 48.1326 25.2824 45.226 26.269C42.3219 25.2824 39.2977 24.6945 36.2355 24.5218C38.6779 20.9238 41.8205 18.7532 45.2471 18.7532ZM23.8059 31.1731C25.5099 28.2209 28.9336 26.5853 33.2384 26.2573C31.8725 28.9827 30.8794 31.8795 30.2862 34.8698C27.9704 36.8851 25.9389 39.2057 24.2475 41.7677C22.3935 37.8875 22.1056 34.1172 23.8059 31.1731ZM23.9721 59.3868C22.9964 59.3868 22.2055 58.5959 22.2055 57.6202C22.2055 56.6445 22.9964 55.8535 23.9721 55.8535C24.9479 55.8535 25.7388 56.6445 25.7388 57.6202C25.7388 58.5959 24.9479 59.3868 23.9721 59.3868ZM27.1646 59.1102C27.3865 58.6448 27.503 58.1357 27.5054 57.6202C27.5054 55.6687 25.9236 54.0865 23.9721 54.0865C23.6697 54.0905 23.3688 54.1338 23.0773 54.2155C22.2876 51.5973 22.7797 48.4995 24.3009 45.3257C25.9842 47.882 28.0044 50.1998 30.3072 52.2159C30.9089 55.1977 31.9097 58.0852 33.2825 60.8001C31.1447 60.6881 29.0569 60.1114 27.1646 59.1102ZM45.2471 68.22C41.8509 68.22 38.7316 66.0895 36.299 62.5489C39.3252 62.3621 42.313 61.7754 45.1852 60.8045C48.084 61.8061 51.1066 62.4058 54.168 62.5869C51.7394 66.1052 48.6311 68.22 45.2471 68.22ZM62.8387 62.0366C61.863 62.0366 61.072 61.2457 61.072 60.2699C61.072 59.2942 61.863 58.5033 62.8387 58.5033C63.8144 58.5033 64.6053 59.2942 64.6053 60.2699C64.6053 61.2457 63.8144 62.0366 62.8387 62.0366ZM66.6449 55.9065C66.2563 56.5612 65.7776 57.1576 65.2228 57.6792C63.7994 56.3553 61.5718 56.4358 60.248 57.8592C59.639 58.5142 59.3022 59.3759 59.3054 60.2699C59.3054 60.3528 59.324 60.4309 59.3301 60.5122C58.6321 60.6444 57.9265 60.737 57.2181 60.7883C58.5949 58.0609 59.5969 55.1597 60.1966 52.1634C62.4853 50.1537 64.4929 47.8452 66.1661 45.3002C68.1042 49.3381 68.2862 53.0631 66.6449 55.9065Z" fill="url(#paint1_linear_1_1548)"/>
<path d="M45.1721 34.6533C40.2935 34.6533 36.3384 38.608 36.3384 43.4865C36.3384 48.3651 40.2935 52.3198 45.1721 52.3198C50.0502 52.3198 54.0053 48.3651 54.0053 43.4865C54 38.6104 50.0482 34.6586 45.1721 34.6533ZM45.1721 50.5531C41.2692 50.5531 38.1051 47.3894 38.1051 43.4865C38.1051 39.5837 41.2692 36.42 45.1721 36.42C49.0745 36.42 52.2386 39.5837 52.2386 43.4865C52.2342 47.3878 49.0729 50.5491 45.1721 50.5531Z" fill="url(#paint2_linear_1_1548)"/>
</g>
</g>
</g>
<defs>
<linearGradient id="paint0_linear_1_1548" x1="-20.838" y1="90.6422" x2="77.1061" y2="11.2657" gradientUnits="userSpaceOnUse">
<stop stop-color="#03DAF2"/>
<stop offset="1" stop-color="#13E780"/>
</linearGradient>
<linearGradient id="paint1_linear_1_1548" x1="8.61036" y1="71.5237" x2="66.5084" y2="28.0657" gradientUnits="userSpaceOnUse">
<stop stop-color="#03DAF2"/>
<stop offset="1" stop-color="#13E780"/>
</linearGradient>
<linearGradient id="paint2_linear_1_1548" x1="32.0807" y1="52.8321" x2="51.7436" y2="36.8965" gradientUnits="userSpaceOnUse">
<stop stop-color="#03DAF2"/>
<stop offset="1" stop-color="#13E780"/>
</linearGradient>
<clipPath id="clip0_1_1548">
<rect width="88" height="88" fill="white" transform="translate(0.370117 0.0900879)"/>
</clipPath>
<clipPath id="clip1_1_1548">
<rect width="88" height="88" fill="white" transform="translate(0.370117 0.0900879)"/>
</clipPath>
</defs>
</svg>
