<svg width="89" height="89" viewBox="0 0 89 89" fill="none" xmlns="http://www.w3.org/2000/svg">
<g clip-path="url(#clip0_1_1707)">
<g clip-path="url(#clip1_1_1707)">
<mask id="mask0_1_1707" style="mask-type:luminance" maskUnits="userSpaceOnUse" x="0" y="0" width="89" height="89">
<path d="M88.79 0.339844H0.790039V88.3398H88.79V0.339844Z" fill="white"/>
</mask>
<g mask="url(#mask0_1_1707)">
<path d="M44.8703 88.3398H44.7102C38.8522 88.3457 33.0534 87.1699 27.6604 84.8828C22.4304 82.6778 17.6798 79.4751 13.675 75.4531C9.65163 71.4483 6.44874 66.6966 4.24537 61.4648C1.94595 56.0493 0.770436 50.2232 0.790286 44.3398C0.77194 38.4554 1.94804 32.6285 4.24732 27.2119C6.45062 21.981 9.65354 17.2301 13.677 13.2265C17.6802 9.20226 22.4316 5.99923 27.6633 3.7969C33.0481 1.50934 38.84 0.333451 44.6906 0.33987H44.8899C50.7394 0.333993 56.5303 1.50987 61.9143 3.7969C67.1452 6.0002 71.896 9.20312 75.8996 13.2265C79.9232 17.2305 83.1266 21.9812 85.3313 27.2119C87.6305 32.6286 88.8072 38.4553 88.7902 44.3398C88.8075 50.2233 87.6311 56.0491 85.3322 61.4648C83.1266 66.695 79.9233 71.4455 75.9006 75.4502C71.897 79.4736 67.1462 82.6766 61.9152 84.8799C56.5246 87.1694 50.727 88.3463 44.8703 88.3398ZM44.7902 4.33987C34.191 4.37047 24.0351 8.59503 16.5402 16.0898C9.04546 23.5847 4.82089 33.7406 4.79029 44.3398C4.81958 54.9395 9.04322 65.0967 16.5383 72.5918C24.0334 80.0869 34.1906 84.3105 44.7902 84.3398C55.3903 84.3118 65.5478 80.0882 73.0432 72.5928C80.5386 65.0974 84.7623 54.9399 84.7902 44.3398C84.761 33.7402 80.5373 23.583 73.0422 16.0879C65.5471 8.5928 55.3899 4.36916 44.7902 4.33987Z" fill="url(#paint0_linear_1_1707)"/>
<path d="M43.4889 16.3546C43.3706 16.3654 42.9943 16.403 42.6556 16.4299C34.8438 17.1341 27.5266 21.3485 22.8922 27.826C20.3115 31.4277 18.661 35.5131 18.0373 39.8404C17.8169 41.3509 17.79 41.7971 17.79 43.8452C17.79 45.8933 17.8169 46.3394 18.0373 47.85C19.5319 58.1764 26.8814 66.8527 36.8491 70.0672C38.6341 70.6424 40.5158 71.0348 42.6556 71.2714C43.4889 71.3627 47.0911 71.3627 47.9244 71.2714C51.618 70.8628 54.747 69.9489 57.833 68.3738C58.3061 68.1319 58.3975 68.0674 58.333 68.0137C58.29 67.9814 56.2739 65.2775 53.8545 62.0092L49.4567 56.0692L43.9459 47.9145C40.9137 43.4313 38.419 39.7651 38.3975 39.7651C38.376 39.7598 38.3545 43.3829 38.3438 47.807C38.3276 55.5531 38.3223 55.8649 38.2255 56.0477C38.0857 56.3111 37.9782 56.4186 37.7524 56.5369C37.5803 56.6229 37.4298 56.639 36.618 56.639H35.6878L35.4405 56.4831C35.2792 56.381 35.161 56.2466 35.0803 56.0907L34.9674 55.8488L34.9782 45.0708L34.9943 34.2874L35.161 34.0778C35.247 33.9649 35.4298 33.8198 35.5588 33.7499C35.7792 33.6424 35.8653 33.6316 36.7954 33.6316C37.8922 33.6316 38.0749 33.6746 38.3599 33.9864C38.4405 34.0724 41.4244 38.5664 44.9943 43.9796C48.5642 49.3928 53.4459 56.7841 55.8438 60.4126L60.1986 67.0084L60.419 66.8633C62.3706 65.5947 64.4352 63.7885 66.0696 61.907C69.5481 57.913 71.79 53.0428 72.5427 47.85C72.7631 46.3394 72.79 45.8933 72.79 43.8452C72.79 41.7971 72.7631 41.3509 72.5427 39.8404C71.0481 29.514 63.6986 20.8378 53.7309 17.6232C51.9728 17.0534 50.1018 16.661 48.0051 16.4245C47.4889 16.3707 43.9352 16.3116 43.4889 16.3546ZM54.747 32.9866C55.0051 33.1156 55.2147 33.3629 55.29 33.6209C55.333 33.7606 55.3438 36.7495 55.333 43.485L55.3169 53.1503L53.6126 50.5377L51.9029 47.9252V40.8994C51.9029 36.357 51.9244 33.8036 51.9567 33.68C52.0427 33.379 52.2309 33.1425 52.4889 33.0027C52.7094 32.8898 52.79 32.8791 53.6341 32.8791C54.4298 32.8791 54.5696 32.8898 54.747 32.9866Z" stroke="url(#paint1_linear_1_1707)" stroke-width="1.5"/>
</g>
</g>
</g>
<defs>
<linearGradient id="paint0_linear_1_1707" x1="-20.4181" y1="90.8919" x2="77.526" y2="11.5155" gradientUnits="userSpaceOnUse">
<stop stop-color="#03DAF2"/>
<stop offset="1" stop-color="#13E780"/>
</linearGradient>
<linearGradient id="paint1_linear_1_1707" x1="4.53506" y1="72.9349" x2="65.75" y2="23.3249" gradientUnits="userSpaceOnUse">
<stop stop-color="#03DAF2"/>
<stop offset="1" stop-color="#13E780"/>
</linearGradient>
<clipPath id="clip0_1_1707">
<rect width="88" height="88" fill="white" transform="translate(0.790039 0.339844)"/>
</clipPath>
<clipPath id="clip1_1_1707">
<rect width="88" height="88" fill="white" transform="translate(0.790039 0.339844)"/>
</clipPath>
</defs>
</svg>
