<svg width="89" height="89" viewBox="0 0 89 89" fill="none" xmlns="http://www.w3.org/2000/svg">
<g clip-path="url(#clip0_1_1527)">
<g clip-path="url(#clip1_1_1527)">
<mask id="mask0_1_1527" style="mask-type:luminance" maskUnits="userSpaceOnUse" x="0" y="0" width="89" height="89">
<path d="M88.3701 0.0900879H0.370117V88.0901H88.3701V0.0900879Z" fill="white"/>
</mask>
<g mask="url(#mask0_1_1527)">
<path d="M44.4504 88.0901H44.2903C38.4323 88.096 32.6335 86.9202 27.2405 84.6331C22.0105 82.4281 17.2599 79.2254 13.2551 75.2034C9.23171 71.1986 6.02882 66.4469 3.82545 61.2151C1.52603 55.7996 0.350514 49.9735 0.370364 44.0901C0.352018 38.2057 1.52812 32.3788 3.8274 26.9622C6.0307 21.7313 9.23362 16.9804 13.2571 12.9768C17.2603 8.95251 22.0117 5.74948 27.2434 3.54715C32.6282 1.25959 38.4201 0.0836955 44.2707 0.090114H44.47C50.3195 0.0842371 56.1104 1.26012 61.4944 3.54715C66.7253 5.75045 71.4761 8.95337 75.4797 12.9768C79.5033 16.9808 82.7067 21.7315 84.9114 26.9622C87.2106 32.3789 88.3873 38.2056 88.3703 44.0901C88.3876 49.9736 87.2112 55.7994 84.9123 61.2151C82.7067 66.4453 79.5034 71.1958 75.4807 75.2005C71.4771 79.2239 66.7263 82.4269 61.4953 84.6302C56.1047 86.9197 50.3071 88.0966 44.4504 88.0901ZM44.3703 4.09012C33.7711 4.12072 23.6152 8.34528 16.1203 15.8401C8.62554 23.335 4.40097 33.4909 4.37037 44.0901C4.39966 54.6898 8.6233 64.847 16.1184 72.3421C23.6135 79.8372 33.7707 84.0608 44.3703 84.0901C54.9704 84.0621 65.1279 79.8385 72.6233 72.3431C80.1187 64.8477 84.3424 54.6902 84.3703 44.0901C84.3411 33.4905 80.1174 23.3333 72.6223 15.8382C65.1272 8.34305 54.97 4.11941 44.3703 4.09012Z" fill="url(#paint0_linear_1_1527)"/>
<path d="M24.3701 20.0901H64.3701C66.5792 20.0901 68.3701 21.881 68.3701 24.0901V64.0901C68.3701 66.2992 66.5792 68.0901 64.3701 68.0901H24.3701C22.161 68.0901 20.3701 66.2992 20.3701 64.0901V24.0901C20.3701 21.881 22.161 20.0901 24.3701 20.0901Z" stroke="url(#paint1_linear_1_1527)" stroke-width="2"/>
<path d="M32.5167 60.8738L36.3431 58.5581C37.0813 59.8669 37.7528 60.9743 39.3635 60.9743C40.9074 60.9743 41.8809 60.3703 41.8809 58.0211V42.0449H46.5796V58.0876C46.5796 62.9542 43.7269 65.1694 39.5649 65.1694C35.8061 65.1694 33.6243 63.2231 32.5167 60.8738Z" fill="url(#paint2_linear_1_1527)"/>
<path d="M49.1318 60.3702L52.9577 58.155C53.9648 59.7998 55.2738 61.008 57.5895 61.008C59.5364 61.008 60.7779 60.0346 60.7779 58.692C60.7779 57.081 59.5026 56.5103 57.3545 55.5709L56.1801 55.0671C52.7901 53.6242 50.5412 51.8118 50.5412 47.9855C50.5412 44.4614 53.2262 41.7762 57.4218 41.7762C60.4089 41.7762 62.557 42.8168 64.1007 45.5354L60.4423 47.8847C59.6367 46.4416 58.7643 45.8711 57.4219 45.8711C56.0458 45.8711 55.1731 46.7438 55.1731 47.8847C55.1731 49.2944 56.0458 49.8651 58.0593 50.7378L59.2339 51.2412C63.228 52.953 65.4768 54.6981 65.4768 58.6249C65.4768 62.8541 62.1541 65.1697 57.6903 65.1697C53.3271 65.1697 50.5077 63.0889 49.1318 60.3702Z" fill="url(#paint3_linear_1_1527)"/>
</g>
</g>
</g>
<defs>
<linearGradient id="paint0_linear_1_1527" x1="-20.838" y1="90.6422" x2="77.1061" y2="11.2657" gradientUnits="userSpaceOnUse">
<stop stop-color="#03DAF2"/>
<stop offset="1" stop-color="#13E780"/>
</linearGradient>
<linearGradient id="paint1_linear_1_1527" x1="7.32014" y1="70.5401" x2="62.9701" y2="25.4401" gradientUnits="userSpaceOnUse">
<stop stop-color="#03DAF2"/>
<stop offset="1" stop-color="#13E780"/>
</linearGradient>
<linearGradient id="paint2_linear_1_1527" x1="29.1275" y1="65.84" x2="49.9916" y2="55.5571" gradientUnits="userSpaceOnUse">
<stop stop-color="#03DAF2"/>
<stop offset="1" stop-color="#13E780"/>
</linearGradient>
<linearGradient id="paint3_linear_1_1527" x1="45.1927" y1="65.8481" x2="68.0153" y2="52.925" gradientUnits="userSpaceOnUse">
<stop stop-color="#03DAF2"/>
<stop offset="1" stop-color="#13E780"/>
</linearGradient>
<clipPath id="clip0_1_1527">
<rect width="88" height="88" fill="white" transform="translate(0.370117 0.0900879)"/>
</clipPath>
<clipPath id="clip1_1_1527">
<rect width="88" height="88" fill="white" transform="translate(0.370117 0.0900879)"/>
</clipPath>
</defs>
</svg>
