<svg width="81" height="80" viewBox="0 0 81 80" fill="none" xmlns="http://www.w3.org/2000/svg">
<g clip-path="url(#clip0_1_1234)">
<mask id="mask0_1_1234" style="mask-type:luminance" maskUnits="userSpaceOnUse" x="0" y="0" width="81" height="80">
<path d="M80.3199 0.0600586H0.399902V79.9801H80.3199V0.0600586Z" fill="white"/>
</mask>
<g mask="url(#mask0_1_1234)">
<path d="M40.4328 79.9801H40.2874C34.9673 79.9854 29.7009 78.9176 24.8031 76.8405C20.0533 74.8379 15.7389 71.9293 12.1018 68.2766C8.44784 64.6395 5.53903 60.3241 3.53797 55.5727C1.44968 50.6544 0.382099 45.3633 0.400127 40.0201C0.383465 34.676 1.45158 29.3841 3.53974 24.4648C5.54074 19.7142 8.44957 15.3995 12.1036 11.7635C15.7393 8.10875 20.0544 5.19981 24.8057 3.1997C29.6961 1.12218 34.9562 0.0542531 40.2696 0.0600823H40.4506C45.763 0.054745 51.0222 1.12266 55.9119 3.1997C60.6625 5.2007 64.9771 8.10953 68.6131 11.7635C72.2672 15.3999 75.1765 19.7144 77.1788 24.4648C79.2669 29.3842 80.3355 34.6759 80.3201 40.0201C80.3358 45.3633 79.2674 50.6542 77.1796 55.5727C75.1765 60.3226 72.2673 64.637 68.614 68.274C64.978 71.9279 60.6634 74.8368 55.9127 76.8378C51.0171 78.9171 45.7518 79.986 40.4328 79.9801ZM40.3601 3.69281C30.7341 3.7206 21.5107 7.55727 14.7039 14.3639C7.89733 21.1707 4.06065 30.3941 4.03286 40.0201C4.05946 49.6465 7.89529 58.8711 14.7022 65.678C21.5091 72.4849 30.7337 76.3207 40.3601 76.3473C49.9869 76.3219 59.2118 72.4861 66.0189 65.6789C72.8261 58.8717 76.662 49.6469 76.6874 40.0201C76.6608 30.3937 72.825 21.1691 66.018 14.3622C59.2111 7.55525 49.9865 3.71941 40.3601 3.69281Z" fill="url(#paint0_linear_1_1234)"/>
<path d="M19.9258 51.4505V57.5807C19.9258 58.8067 20.7431 59.6241 21.9692 59.6241H30.1428V53.4939H36.2731V47.3636H40.3599L43.2206 44.5029C46.0606 45.4922 49.1523 45.4883 51.9899 44.4921C54.8275 43.4959 57.243 41.5661 58.8412 39.0185C60.4394 36.471 61.1258 33.4565 60.7881 30.4682C60.4503 27.4798 59.1084 24.6945 56.9819 22.568C54.8553 20.4415 52.0701 19.0996 49.0817 18.7618C46.0933 18.424 43.0788 19.1104 40.5312 20.7086C37.9837 22.3069 36.054 24.7224 35.0577 27.5599C34.0615 30.3975 34.0577 33.4892 35.047 36.3292L19.9258 51.4505Z" stroke="url(#paint1_linear_1_1234)" stroke-width="2.72455" stroke-linecap="round" stroke-linejoin="round"/>
<path d="M49.5552 30.9382C50.1194 30.9382 50.5769 30.4807 50.5769 29.9165C50.5769 29.3522 50.1194 28.8948 49.5552 28.8948C48.9909 28.8948 48.5334 29.3522 48.5334 29.9165C48.5334 30.4807 48.9909 30.9382 49.5552 30.9382Z" fill="url(#paint2_linear_1_1234)" stroke="url(#paint3_linear_1_1234)" stroke-width="2.72455" stroke-linecap="round" stroke-linejoin="round"/>
</g>
</g>
<defs>
<linearGradient id="paint0_linear_1_1234" x1="-18.8609" y1="82.2978" x2="70.0901" y2="10.2095" gradientUnits="userSpaceOnUse">
<stop stop-color="#03DAF2"/>
<stop offset="1" stop-color="#13E780"/>
</linearGradient>
<linearGradient id="paint1_linear_1_1234" x1="10.0577" y1="60.8115" x2="55.6309" y2="23.8779" gradientUnits="userSpaceOnUse">
<stop stop-color="#03DAF2"/>
<stop offset="1" stop-color="#13E780"/>
</linearGradient>
<linearGradient id="paint2_linear_1_1234" x1="48.041" y1="30.9975" x2="50.3153" y2="29.1542" gradientUnits="userSpaceOnUse">
<stop stop-color="#03DAF2"/>
<stop offset="1" stop-color="#13E780"/>
</linearGradient>
<linearGradient id="paint3_linear_1_1234" x1="48.041" y1="30.9975" x2="50.3153" y2="29.1542" gradientUnits="userSpaceOnUse">
<stop stop-color="#03DAF2"/>
<stop offset="1" stop-color="#13E780"/>
</linearGradient>
<clipPath id="clip0_1_1234">
<rect width="79.92" height="79.92" fill="white" transform="translate(0.399902 0.0600586)"/>
</clipPath>
</defs>
</svg>
