<svg width="80" height="81" viewBox="0 0 80 81" fill="none" xmlns="http://www.w3.org/2000/svg">
<g clip-path="url(#clip0_1_1178)">
<mask id="mask0_1_1178" style="mask-type:luminance" maskUnits="userSpaceOnUse" x="0" y="0" width="80" height="81">
<path d="M79.93 0.150024H0.0100098V80.07H79.93V0.150024Z" fill="white"/>
</mask>
<g mask="url(#mask0_1_1178)">
<path d="M40.0429 80.07H39.8975C34.5774 80.0754 29.311 79.0075 24.4132 76.9304C19.6634 74.9279 15.349 72.0193 11.7119 68.3666C8.05795 64.7295 5.14914 60.4141 3.14808 55.6626C1.05979 50.7444 -0.00779369 45.4532 0.0102343 40.11C-0.0064276 34.7659 1.06168 29.474 3.14985 24.5548C5.15085 19.8042 8.05968 15.4895 11.7137 11.8535C15.3494 8.19871 19.6645 5.28978 24.4159 3.28966C29.3062 1.21214 34.5663 0.144219 39.8797 0.150048H40.0607C45.3731 0.144711 50.6323 1.21262 55.522 3.28966C60.2726 5.29066 64.5872 8.19949 68.2232 11.8535C71.8773 15.4899 74.7866 19.8044 76.7889 24.5548C78.877 29.4741 79.9456 34.7658 79.9302 40.11C79.9459 45.4533 78.8775 50.7442 76.7897 55.6626C74.7866 60.4126 71.8774 64.7269 68.2241 68.3639C64.5881 72.0179 60.2735 74.9268 55.5228 76.9278C50.6272 79.0071 45.3619 80.0759 40.0429 80.07ZM39.9702 3.78278C30.3442 3.81057 21.1208 7.64724 14.3141 14.4539C7.50743 21.2606 3.67075 30.484 3.64296 40.11C3.66956 49.7365 7.5054 58.9611 14.3123 65.768C21.1192 72.5749 30.3438 76.4107 39.9702 76.4373C49.597 76.4119 58.8219 72.5761 65.6291 65.7689C72.4362 58.9617 76.2721 49.7368 76.2975 40.11C76.2709 30.4837 72.4351 21.2591 65.6281 14.4522C58.8212 7.64521 49.5966 3.80938 39.9702 3.78278Z" fill="url(#paint0_linear_1_1178)"/>
<path fill-rule="evenodd" clip-rule="evenodd" d="M21.5793 25.8061L25.6662 21.7192L58.3607 54.4138L54.2739 58.5006L21.5793 25.8061ZM42.0134 25.8061L44.0568 21.7192L46.1003 25.8061L50.1871 27.8495L46.1003 29.8929L44.0568 33.9797L42.0134 29.8929L37.9266 27.8495L42.0134 25.8061ZM25.6662 46.2401L27.7096 42.1533L29.753 46.2401L33.8398 48.2836L29.753 50.327L27.7096 54.4138L25.6662 50.327L21.5793 48.2836L25.6662 46.2401ZM23.6228 33.9797L25.6662 36.0231L23.6228 38.0665L21.5793 36.0231L23.6228 33.9797ZM52.2305 36.0231L54.2739 38.0665L52.2305 40.1099L50.1871 38.0665L52.2305 36.0231Z" fill="url(#paint1_linear_1_1178)"/>
</g>
</g>
<defs>
<linearGradient id="paint0_linear_1_1178" x1="-19.2508" y1="82.3878" x2="69.7003" y2="10.2995" gradientUnits="userSpaceOnUse">
<stop stop-color="#03DAF2"/>
<stop offset="1" stop-color="#13E780"/>
</linearGradient>
<linearGradient id="paint1_linear_1_1178" x1="12.715" y1="59.5673" x2="53.6527" y2="26.3905" gradientUnits="userSpaceOnUse">
<stop stop-color="#03DAF2"/>
<stop offset="1" stop-color="#13E780"/>
</linearGradient>
<clipPath id="clip0_1_1178">
<rect width="79.92" height="79.92" fill="white" transform="translate(0.0100098 0.150024)"/>
</clipPath>
</defs>
</svg>
