<svg width="81" height="81" viewBox="0 0 81 81" fill="none" xmlns="http://www.w3.org/2000/svg">
<g clip-path="url(#clip0_1_1160)">
<mask id="mask0_1_1160" style="mask-type:luminance" maskUnits="userSpaceOnUse" x="0" y="0" width="81" height="81">
<path d="M80.15 0.150024H0.22998V80.07H80.15V0.150024Z" fill="white"/>
</mask>
<g mask="url(#mask0_1_1160)">
<path d="M40.2629 80.07H40.1175C34.7974 80.0754 29.531 79.0075 24.6332 76.9304C19.8834 74.9279 15.569 72.0193 11.9319 68.3666C8.27792 64.7295 5.36911 60.4141 3.36805 55.6626C1.27976 50.7444 0.212177 45.4532 0.230205 40.11C0.213543 34.7659 1.28166 29.474 3.36982 24.5548C5.37082 19.8042 8.27965 15.4895 11.9337 11.8535C15.5694 8.19871 19.8845 5.28978 24.6358 3.28966C29.5262 1.21214 34.7863 0.144219 40.0997 0.150048H40.2807C45.5931 0.144711 50.8523 1.21262 55.742 3.28966C60.4926 5.29066 64.8072 8.19949 68.4432 11.8535C72.0973 15.4899 75.0066 19.8044 77.0089 24.5548C79.0969 29.4741 80.1656 34.7658 80.1502 40.11C80.1659 45.4533 79.0975 50.7442 77.0097 55.6626C75.0066 60.4126 72.0974 64.7269 68.4441 68.3639C64.8081 72.0179 60.4935 74.9268 55.7428 76.9278C50.8471 79.0071 45.5819 80.0759 40.2629 80.07ZM40.1902 3.78278C30.5642 3.81057 21.3408 7.64724 14.534 14.4539C7.7274 21.2606 3.89073 30.484 3.86293 40.11C3.88954 49.7365 7.72537 58.9611 14.5323 65.768C21.3392 72.5749 30.5638 76.4107 40.1902 76.4373C49.817 76.4119 59.0418 72.5761 65.849 65.7689C72.6562 58.9617 76.4921 49.7368 76.5174 40.11C76.4909 30.4837 72.655 21.2591 65.8481 14.4522C59.0412 7.64521 49.8166 3.80938 40.1902 3.78278Z" fill="url(#paint0_linear_1_1160)"/>
<path d="M19.6664 30.7358L34.1935 40.4219C36.1977 41.756 37.1988 42.4241 38.281 42.6842C39.2384 42.9132 40.2353 42.9132 41.1907 42.6842C42.2728 42.4241 43.2739 41.756 45.2782 40.4219L59.8053 30.7358M29.6564 55.2654H49.8153C53.3118 55.2654 55.06 55.2654 56.3962 54.5848C57.5703 53.9858 58.5247 53.0308 59.1227 51.8562C59.8053 50.5201 59.8053 48.7719 59.8053 45.2754V34.0366C59.8053 30.5401 59.8053 28.7919 59.1248 27.4558C58.5261 26.2809 57.571 25.3258 56.3962 24.7272C55.06 24.0466 53.3118 24.0466 49.8153 24.0466H29.6564C26.1599 24.0466 24.4116 24.0466 23.0754 24.7272C21.9014 25.3262 20.947 26.2812 20.349 27.4558C19.6664 28.7919 19.6664 30.5401 19.6664 34.0366V45.2754C19.6664 48.7719 19.6664 50.5201 20.3469 51.8562C20.9456 53.0311 21.9007 53.9862 23.0754 54.5848C24.4116 55.2654 26.1599 55.2654 29.6564 55.2654Z" stroke="url(#paint1_linear_1_1160)" stroke-width="3.40568" stroke-linecap="round" stroke-linejoin="round"/>
</g>
</g>
<defs>
<linearGradient id="paint0_linear_1_1160" x1="-19.0308" y1="82.3878" x2="69.9202" y2="10.2995" gradientUnits="userSpaceOnUse">
<stop stop-color="#03DAF2"/>
<stop offset="1" stop-color="#13E780"/>
</linearGradient>
<linearGradient id="paint1_linear_1_1160" x1="9.99288" y1="56.1707" x2="45.4797" y2="19.1939" gradientUnits="userSpaceOnUse">
<stop stop-color="#03DAF2"/>
<stop offset="1" stop-color="#13E780"/>
</linearGradient>
<clipPath id="clip0_1_1160">
<rect width="79.92" height="79.92" fill="white" transform="translate(0.22998 0.150024)"/>
</clipPath>
</defs>
</svg>
