<svg width="89" height="89" viewBox="0 0 89 89" fill="none" xmlns="http://www.w3.org/2000/svg">
<g clip-path="url(#clip0_1_1725)">
<g clip-path="url(#clip1_1_1725)">
<g clip-path="url(#clip2_1_1725)">
<mask id="mask0_1_1725" style="mask-type:luminance" maskUnits="userSpaceOnUse" x="0" y="0" width="89" height="89">
<path d="M88.79 0.339844H0.790039V88.3398H88.79V0.339844Z" fill="white"/>
</mask>
<g mask="url(#mask0_1_1725)">
<path d="M44.8703 88.3398H44.7102C38.8522 88.3457 33.0534 87.1699 27.6604 84.8828C22.4304 82.6778 17.6798 79.4751 13.675 75.4531C9.65163 71.4483 6.44874 66.6966 4.24537 61.4648C1.94595 56.0493 0.770436 50.2232 0.790286 44.3398C0.77194 38.4554 1.94804 32.6285 4.24732 27.2119C6.45062 21.981 9.65354 17.2301 13.677 13.2265C17.6802 9.20226 22.4316 5.99923 27.6633 3.7969C33.0481 1.50934 38.84 0.333451 44.6906 0.33987H44.8899C50.7394 0.333993 56.5303 1.50987 61.9143 3.7969C67.1452 6.0002 71.896 9.20312 75.8996 13.2265C79.9232 17.2305 83.1266 21.9812 85.3313 27.2119C87.6305 32.6286 88.8072 38.4553 88.7902 44.3398C88.8075 50.2233 87.6311 56.0491 85.3322 61.4648C83.1266 66.695 79.9233 71.4455 75.9006 75.4502C71.897 79.4736 67.1462 82.6766 61.9152 84.8799C56.5246 87.1694 50.727 88.3463 44.8703 88.3398ZM44.7902 4.33987C34.191 4.37047 24.0351 8.59503 16.5402 16.0898C9.04546 23.5847 4.82089 33.7406 4.79029 44.3398C4.81958 54.9395 9.04322 65.0967 16.5383 72.5918C24.0334 80.0869 34.1906 84.3105 44.7902 84.3398C55.3903 84.3118 65.5478 80.0882 73.0432 72.5928C80.5386 65.0974 84.7623 54.9399 84.7902 44.3398C84.761 33.7402 80.5373 23.583 73.0422 16.0879C65.5471 8.5928 55.3899 4.36916 44.7902 4.33987Z" fill="url(#paint0_linear_1_1725)"/>
<mask id="mask1_1_1725" style="mask-type:luminance" maskUnits="userSpaceOnUse" x="14" y="15" width="61" height="59">
<path d="M50.1187 15.3398C49.6848 15.3398 49.282 15.43 48.9101 15.5503C49.7003 16.0616 50.1342 16.7383 50.3511 17.5052C50.3667 17.6104 50.3976 17.6856 50.4131 17.7909C50.4287 17.8811 50.4441 17.9713 50.4441 18.0616C50.5061 19.3848 50.0877 19.5503 49.7933 20.3322C49.3439 21.3397 49.4679 22.4224 50.0102 23.2946C50.0567 23.3998 50.1187 23.5201 50.1962 23.6254C49.6073 19.8209 52.8768 19.2495 53.4811 18.0616C53.5276 17.024 52.6444 16.3323 51.9471 15.8511C51.2808 15.4601 50.6765 15.3398 50.1187 15.3398ZM55.0461 16.1969C54.9841 16.5428 55.0306 16.4526 55.0152 16.633C54.9996 16.7533 54.9996 16.9037 54.9842 17.024C54.9532 17.1443 54.9222 17.2646 54.8757 17.3849C54.8448 17.5052 54.7983 17.6255 54.7518 17.7458C54.6898 17.8661 54.6433 17.9713 54.5813 18.0916C54.5348 18.1518 54.5038 18.2119 54.4574 18.2721C54.4264 18.3172 54.3954 18.3623 54.3644 18.4074C54.2869 18.5127 54.2094 18.6179 54.132 18.7082C54.039 18.7984 53.9615 18.9036 53.853 18.9788C53.853 18.9939 53.853 18.9939 53.853 18.9939C53.7601 19.0691 53.6671 19.1593 53.5586 19.2345C53.2332 19.4751 52.8614 19.6555 52.5205 19.8811C52.412 19.9563 52.3035 20.0164 52.2106 20.1067C52.1021 20.1818 52.0091 20.257 51.9162 20.3473C51.8077 20.4375 51.7302 20.5277 51.6373 20.633C51.5598 20.7232 51.4668 20.8284 51.4048 20.9337C51.3274 21.039 51.2499 21.1442 51.1879 21.2495C51.1259 21.3698 51.0794 21.4751 51.0174 21.5953C50.971 21.7156 50.9245 21.8209 50.8935 21.9412C50.847 22.0765 50.816 22.1968 50.785 22.3171C50.7695 22.3773 50.7695 22.4525 50.7541 22.5126C50.7385 22.5728 50.7385 22.6329 50.7231 22.6931C50.7231 22.8134 50.7076 22.9487 50.7076 23.069C50.7076 23.1592 50.7076 23.2495 50.7231 23.3397C50.7231 23.46 50.7386 23.5803 50.7696 23.7156C50.7851 23.8359 50.8161 23.9562 50.8471 24.0765C50.8935 24.1968 50.9245 24.3171 50.971 24.4374C51.002 24.5126 51.0485 24.5878 51.0795 24.6479L47.5156 23.3096C46.9113 23.1442 46.3225 22.9938 45.7182 22.8585C45.3928 22.7833 45.0674 22.7081 44.742 22.6329C43.8123 22.4525 42.8671 22.3171 41.9219 22.2269C41.8909 22.2269 41.8754 22.2119 41.8444 22.2119C40.9147 22.1216 40.0005 22.0765 39.0708 22.0765C38.389 22.0765 37.7072 22.1066 37.0409 22.1517C36.0957 22.2119 35.1505 22.3322 34.2053 22.4825C33.9729 22.5126 33.7405 22.5577 33.508 22.6028C33.0277 22.6931 32.5628 22.7983 32.1135 22.9036C31.8811 22.9638 31.6486 23.0239 31.4162 23.084C31.1838 23.1742 30.9669 23.2795 30.7499 23.3697C30.5795 23.4449 30.409 23.5201 30.2386 23.5953C30.2076 23.6104 30.1766 23.6104 30.1611 23.6254C30.0062 23.7005 29.8667 23.7607 29.7272 23.8359C29.6808 23.8509 29.6498 23.8659 29.6188 23.881C29.4483 23.9562 29.2779 24.0464 29.1384 24.1216C29.03 24.1667 28.9215 24.2268 28.8285 24.272C28.782 24.302 28.7201 24.3321 28.6891 24.3471C28.5496 24.4223 28.4102 24.4975 28.2862 24.5727C28.1467 24.6479 28.0228 24.7231 27.9143 24.7983C27.8059 24.8734 27.6974 24.9336 27.6044 25.0088C27.5889 25.0238 27.5734 25.0238 27.5579 25.0388C27.465 25.099 27.3565 25.1742 27.2635 25.2494C27.2635 25.2494 27.248 25.2644 27.2326 25.2794C27.1551 25.3396 27.0776 25.3997 27.0001 25.4599C26.9692 25.4749 26.9381 25.505 26.9072 25.52C26.8297 25.5802 26.7522 25.6554 26.6747 25.7155C26.6592 25.7456 26.6283 25.7606 26.6127 25.7757C26.5198 25.8659 26.4268 25.9411 26.3338 26.0313C26.3183 26.0313 26.3183 26.0464 26.3029 26.0614C26.2099 26.1366 26.1169 26.2268 26.0239 26.317C26.0084 26.3321 26.0084 26.3471 25.993 26.3471C25.9155 26.4222 25.838 26.4974 25.7605 26.5877C25.7296 26.6177 25.6831 26.6478 25.6521 26.6779C25.5746 26.7681 25.4816 26.8583 25.3887 26.9486C25.3731 26.9786 25.3422 26.9937 25.3267 27.0237C25.2027 27.144 25.0942 27.2643 24.9703 27.3846C24.9548 27.3997 24.9393 27.4147 24.9238 27.4297C24.6759 27.6854 24.4124 27.941 24.1335 28.1666C23.8546 28.4072 23.5602 28.6327 23.2658 28.8282C22.9559 29.0387 22.6615 29.2192 22.3361 29.3996C22.0262 29.565 21.7008 29.7154 21.3599 29.8508C21.0345 29.9861 20.6936 30.1064 20.3527 30.2116C19.7019 30.347 19.0357 30.6026 18.4623 30.6477C18.3384 30.6477 18.1989 30.6778 18.075 30.6928C17.9355 30.7229 17.8115 30.753 17.6876 30.7831C17.5636 30.8282 17.4397 30.8733 17.3157 30.9184C17.1917 30.9635 17.0678 31.0237 16.9438 31.0838C16.8354 31.159 16.7114 31.2192 16.6029 31.2943C16.4945 31.3695 16.386 31.4597 16.293 31.55C16.1846 31.6252 16.0761 31.7304 15.9831 31.8206C15.8901 31.9259 15.7972 32.0161 15.7197 32.1214C15.6422 32.2417 15.5493 32.347 15.4873 32.4673C15.4098 32.5725 15.3323 32.6928 15.2703 32.8131C15.2083 32.9484 15.1464 33.0687 15.0999 33.2041C15.0534 33.3244 15.0069 33.4597 14.9604 33.5951C14.9295 33.7153 14.8984 33.8356 14.883 33.9559C14.883 33.971 14.8675 33.986 14.8675 34.0011C14.8365 34.1364 14.8365 34.3168 14.821 34.4071C14.8054 34.5123 14.79 34.6026 14.79 34.7078C14.79 34.768 14.79 34.8431 14.8055 34.9033C14.821 35.0086 14.8365 35.0988 14.8675 35.189C14.8985 35.2792 14.9295 35.3695 14.976 35.4597C14.976 35.4747 14.976 35.4747 14.976 35.4747C15.0225 35.565 15.0845 35.6552 15.1464 35.7454C15.2084 35.8356 15.2704 35.9259 15.3479 36.0161C15.4253 36.0913 15.5183 36.1815 15.6113 36.2567C15.7043 36.3469 15.7972 36.4221 15.9057 36.4973C16.2776 36.8131 16.3705 36.9183 16.8509 37.1589C16.9284 37.204 17.0058 37.2341 17.0988 37.2792C17.1143 37.2792 17.1298 37.2943 17.1453 37.2943C17.1453 37.3243 17.1453 37.3394 17.1608 37.3695C17.1763 37.4898 17.2073 37.6101 17.2383 37.7304C17.2693 37.8657 17.3158 37.986 17.3623 38.0913C17.4088 38.1815 17.4397 38.2717 17.4862 38.3619C17.5017 38.392 17.5172 38.4221 17.5327 38.4371C17.5947 38.5574 17.6567 38.6627 17.7186 38.7679C17.7961 38.8732 17.8736 38.9785 17.9511 39.0837C18.0285 39.174 18.1215 39.2792 18.2145 39.3694C18.3075 39.4597 18.4004 39.5348 18.5089 39.6251C18.5089 39.6251 18.5244 39.6401 18.5399 39.6401C18.6328 39.7153 18.7258 39.7905 18.8188 39.8507C18.9272 39.9259 19.0357 39.986 19.1597 40.0462C19.2681 40.1063 19.3921 40.1665 19.5161 40.2116C19.609 40.2567 19.7175 40.2868 19.826 40.3168C19.8415 40.3319 19.8569 40.3319 19.888 40.3469C19.95 40.362 20.0274 40.3769 20.0894 40.392C20.0429 41.204 20.0274 41.9709 20.1514 42.2416C20.2909 42.5423 20.9726 41.6251 21.6544 40.5724C21.5615 41.61 21.4995 42.828 21.6544 43.1889C21.8249 43.5649 22.7546 42.392 23.5603 41.0987C34.5463 38.6326 44.5717 46.0009 45.6253 56.4067C45.4239 54.7827 43.363 53.8805 42.4179 54.106C41.953 55.2188 41.1627 56.6473 39.8922 57.5345C40.0006 56.5421 39.9542 55.5195 39.7372 54.5271C39.3963 55.9105 38.73 57.2037 37.8158 58.3165C36.3438 58.4217 34.8717 57.73 34.097 56.6925C34.035 56.6473 34.0195 56.5571 33.973 56.497C33.9265 56.3917 33.88 56.2864 33.8491 56.1812C33.8026 56.0759 33.7716 55.9707 33.7561 55.8654C33.7406 55.7601 33.7406 55.6549 33.7406 55.5346C33.7406 55.4594 33.7406 55.3842 33.7406 55.309C33.7561 55.2038 33.7871 55.0985 33.818 54.9932C33.849 54.888 33.88 54.7827 33.9265 54.6774C33.9885 54.5722 34.035 54.4669 34.1125 54.3617C34.3759 53.6399 34.3759 53.0534 33.8955 52.7076C33.8026 52.6474 33.7096 52.6023 33.6011 52.5572C33.5391 52.5421 33.4617 52.5121 33.3997 52.497C33.3532 52.482 33.3222 52.467 33.2757 52.4519C33.1672 52.4218 33.0588 52.3917 32.9503 52.3767C32.8418 52.3467 32.7334 52.3316 32.6249 52.3316C32.5165 52.3165 32.3925 52.3016 32.284 52.3016C32.2066 52.3016 32.1291 52.3166 32.0516 52.3166C31.9276 52.3166 31.8192 52.3317 31.7107 52.3617C31.6022 52.3768 31.4938 52.3918 31.3853 52.4219C31.2768 52.4519 31.1684 52.4821 31.0599 52.5272C30.9515 52.5723 30.8585 52.6174 30.75 52.6625C30.657 52.7076 30.5641 52.7678 30.4556 52.8129C26.8452 55.0985 28.9991 60.4518 31.4628 62.0007C30.5331 62.1661 29.5879 62.3616 29.3245 62.5571C29.3089 62.5721 29.2935 62.5871 29.2935 62.5871C29.9598 62.9781 30.6571 63.3089 31.3853 63.5946C32.377 63.9104 33.4307 64.1961 33.8955 64.3164V64.3315C35.1816 64.5871 36.4832 64.6773 37.8003 64.6021C44.6646 64.136 50.2894 59.0684 51.312 52.3918C51.343 52.5272 51.374 52.6474 51.405 52.7828C51.4515 53.0535 51.5135 53.3392 51.5445 53.6249C51.5445 53.6249 51.5445 53.6249 51.5445 53.64C51.5754 53.7753 51.5909 53.9106 51.6065 54.0309C51.6065 54.061 51.6065 54.076 51.6065 54.0911C51.622 54.2264 51.6374 54.3618 51.6374 54.4821C51.6529 54.6475 51.6684 54.8129 51.6684 54.9783C51.6684 55.0535 51.6684 55.1287 51.6684 55.2189C51.6684 55.2941 51.6839 55.3843 51.6839 55.4595C51.6839 55.5497 51.6684 55.6399 51.6684 55.7302C51.6684 55.8054 51.6684 55.8805 51.6684 55.9407C51.6684 56.046 51.6529 56.1362 51.6529 56.2414C51.6529 56.3016 51.6529 56.3617 51.6373 56.4369C51.6373 56.5422 51.6218 56.6474 51.6218 56.7677C51.6063 56.8129 51.6063 56.858 51.6063 56.9031C51.5908 57.0234 51.5753 57.1286 51.5598 57.2489C51.5598 57.2941 51.5598 57.3392 51.5443 57.3843C51.5287 57.5346 51.4978 57.67 51.4823 57.8204V57.8354V57.8505C51.4513 57.9858 51.4203 58.1362 51.3893 58.2715C51.3893 58.2866 51.3893 58.3016 51.3893 58.3166C51.3583 58.452 51.3273 58.5873 51.2963 58.7226C51.2963 58.7377 51.2808 58.7678 51.2808 58.7828C51.2499 58.9182 51.2188 59.0535 51.1724 59.1888C51.1724 59.2039 51.1724 59.2189 51.1724 59.2339C51.1259 59.3843 51.0794 59.5197 51.0484 59.655C51.0329 59.67 51.0329 59.685 51.0329 59.685C50.9864 59.8354 50.9399 59.9858 50.8934 60.1362C50.8314 60.2865 50.785 60.4219 50.723 60.5722C50.661 60.7226 50.6145 60.873 50.5525 61.0083C50.4905 61.1587 50.4286 61.294 50.3666 61.4444H50.3511C50.2891 61.5797 50.2271 61.7301 50.1496 61.8655C50.1341 61.9106 50.1187 61.9406 50.1031 61.9707C50.0876 61.9858 50.0876 62.0008 50.0722 62.0158C49.065 63.9857 47.5775 65.715 45.7181 67.0684C45.5941 67.1436 45.4701 67.2338 45.3462 67.324C45.3152 67.3541 45.2687 67.3691 45.2377 67.3992C45.1292 67.4744 45.0208 67.5496 44.8968 67.6248L44.9433 67.715H44.9588C45.1757 67.6849 45.3927 67.6548 45.6096 67.6248H45.6251C46.028 67.5646 46.4309 67.4894 46.8337 67.4142C46.9422 67.3992 47.0662 67.3691 47.1746 67.339C47.2521 67.324 47.3141 67.309 47.3916 67.2939C47.5 67.2788 47.6085 67.2488 47.717 67.2338C47.8099 67.2037 47.9029 67.1886 47.9959 67.1586C49.5454 66.7977 51.0484 66.3014 52.4894 65.715C50.0257 68.9781 46.7253 71.6096 42.867 73.3389C44.6489 73.2186 46.4309 72.9329 48.1508 72.4517C54.3953 70.6623 59.6482 66.5871 62.7937 61.0985C62.1584 64.5721 60.7328 67.8804 58.6255 70.7675C60.1285 69.8051 61.5076 68.6924 62.7627 67.4292C66.2336 63.9105 68.5114 59.4444 69.2861 54.6475C69.813 57.0234 69.9679 59.4745 69.7355 61.8955C80.9229 46.7529 70.6652 31.0539 66.3731 26.9187C66.3575 26.8886 66.3421 26.8736 66.3421 26.8435C66.3265 26.8585 66.3265 26.8585 66.3265 26.8735C66.3265 26.8585 66.3265 26.8585 66.311 26.8435C66.311 27.0239 66.2955 27.2044 66.2801 27.3848C66.2336 27.7307 66.1871 28.0615 66.1251 28.3923C66.0476 28.7232 65.9547 29.054 65.8617 29.3848C65.7532 29.7006 65.6293 30.0314 65.4898 30.3472C65.3504 30.6479 65.1954 30.9637 65.025 31.2645C64.8545 31.5502 64.6686 31.8509 64.4671 32.1216C64.2657 32.4073 64.0488 32.678 63.8318 32.9336C63.5994 33.2043 63.3515 33.4449 63.1036 33.6855C62.9486 33.8208 62.8092 33.9411 62.6542 34.0614C62.5302 34.1667 62.4218 34.2569 62.2978 34.3621C62.0189 34.5727 61.74 34.7682 61.4301 34.9486C61.1357 35.129 60.8258 35.3095 60.5159 35.4599C60.1905 35.6102 59.8651 35.7456 59.5397 35.8809C59.2143 36.0012 58.8734 36.1065 58.5325 36.1967C58.1916 36.2869 57.8352 36.3621 57.4943 36.4223C57.138 36.4824 56.7816 36.5125 56.4407 36.5426C56.1928 36.5576 55.9448 36.5726 55.6969 36.5726C55.3405 36.5726 54.9841 36.5426 54.6433 36.5124C54.2869 36.4824 53.9305 36.4372 53.5896 36.3621C53.2332 36.3019 52.8923 36.2117 52.5514 36.1064H52.5359C52.8768 36.0764 53.2177 36.0463 53.5586 35.9861C53.915 35.926 54.2559 35.8508 54.5967 35.7606C54.9376 35.6703 55.2785 35.5651 55.6039 35.4448C55.9448 35.3245 56.2702 35.1741 56.5801 35.0237C56.9055 34.8734 57.1999 34.708 57.5098 34.5275C57.8042 34.332 58.0986 34.1365 58.3775 33.926C58.6565 33.7155 58.9199 33.4899 59.1678 33.2493C59.4312 33.0238 59.6636 32.7681 59.8961 32.5125C60.1285 32.2418 60.3454 31.9712 60.5469 31.7005C60.5778 31.6554 60.6089 31.5952 60.6398 31.5501C60.7948 31.3095 60.9497 31.0689 61.0892 30.8283C61.2596 30.5276 61.4146 30.2268 61.554 29.9111C61.6935 29.5953 61.8175 29.2795 61.9259 28.9487C62.0344 28.6329 62.1119 28.3021 62.1893 27.9712C62.2514 27.6254 62.3133 27.2946 62.3443 26.9637C62.3753 26.6179 62.4063 26.272 62.4063 25.9412C62.4063 25.7006 62.3908 25.46 62.3753 25.2194C62.3444 24.8736 62.2979 24.5427 62.2514 24.2119C62.1894 23.866 62.1119 23.5352 62.0189 23.2044C61.9105 22.8886 61.802 22.5578 61.6781 22.242C61.5541 21.9262 61.3991 21.6104 61.2442 21.3097C61.0737 21.009 60.9033 20.7082 60.7174 20.4225C60.5159 20.1368 60.3145 19.8661 60.0975 19.5954C59.8651 19.3398 59.6327 19.0842 59.3848 18.8285C59.2608 18.7082 59.1214 18.5729 58.9819 18.4526C58.2846 17.9263 57.5564 17.4301 56.8281 16.979C56.7196 16.9188 56.6267 16.8737 56.5182 16.8286C56.0068 16.5128 55.5264 16.3473 55.0461 16.1969Z" fill="white"/>
</mask>
<g mask="url(#mask1_1_1725)">
<path d="M50.1187 15.3398C49.6848 15.3398 49.282 15.43 48.9101 15.5503C49.7003 16.0616 50.1342 16.7383 50.3511 17.5052C50.3667 17.6104 50.3976 17.6856 50.4131 17.7909C50.4287 17.8811 50.4441 17.9713 50.4441 18.0616C50.5061 19.3848 50.0877 19.5503 49.7933 20.3322C49.3439 21.3397 49.4679 22.4224 50.0102 23.2946C50.0567 23.3998 50.1187 23.5201 50.1962 23.6254C49.6073 19.8209 52.8768 19.2495 53.4811 18.0616C53.5276 17.024 52.6444 16.3323 51.9471 15.8511C51.2808 15.4601 50.6765 15.3398 50.1187 15.3398ZM55.0461 16.1969C54.9841 16.5428 55.0306 16.4526 55.0152 16.633C54.9996 16.7533 54.9996 16.9037 54.9842 17.024C54.9532 17.1443 54.9222 17.2646 54.8757 17.3849C54.8448 17.5052 54.7983 17.6255 54.7518 17.7458C54.6898 17.8661 54.6433 17.9713 54.5813 18.0916C54.5348 18.1518 54.5038 18.2119 54.4574 18.2721C54.4264 18.3172 54.3954 18.3623 54.3644 18.4074C54.2869 18.5127 54.2094 18.6179 54.132 18.7082C54.039 18.7984 53.9615 18.9036 53.853 18.9788C53.853 18.9939 53.853 18.9939 53.853 18.9939C53.7601 19.0691 53.6671 19.1593 53.5586 19.2345C53.2332 19.4751 52.8614 19.6555 52.5205 19.8811C52.412 19.9563 52.3035 20.0164 52.2106 20.1067C52.1021 20.1818 52.0091 20.257 51.9162 20.3473C51.8077 20.4375 51.7302 20.5277 51.6373 20.633C51.5598 20.7232 51.4668 20.8284 51.4048 20.9337C51.3274 21.039 51.2499 21.1442 51.1879 21.2495C51.1259 21.3698 51.0794 21.4751 51.0174 21.5953C50.971 21.7156 50.9245 21.8209 50.8935 21.9412C50.847 22.0765 50.816 22.1968 50.785 22.3171C50.7695 22.3773 50.7695 22.4525 50.7541 22.5126C50.7385 22.5728 50.7385 22.6329 50.7231 22.6931C50.7231 22.8134 50.7076 22.9487 50.7076 23.069C50.7076 23.1592 50.7076 23.2495 50.7231 23.3397C50.7231 23.46 50.7386 23.5803 50.7696 23.7156C50.7851 23.8359 50.8161 23.9562 50.8471 24.0765C50.8935 24.1968 50.9245 24.3171 50.971 24.4374C51.002 24.5126 51.0485 24.5878 51.0795 24.6479L47.5156 23.3096C46.9113 23.1442 46.3225 22.9938 45.7182 22.8585C45.3928 22.7833 45.0674 22.7081 44.742 22.6329C43.8123 22.4525 42.8671 22.3171 41.9219 22.2269C41.8909 22.2269 41.8754 22.2119 41.8444 22.2119C40.9147 22.1216 40.0005 22.0765 39.0708 22.0765C38.389 22.0765 37.7072 22.1066 37.0409 22.1517C36.0957 22.2119 35.1505 22.3322 34.2053 22.4825C33.9729 22.5126 33.7405 22.5577 33.508 22.6028C33.0277 22.6931 32.5628 22.7983 32.1135 22.9036C31.8811 22.9638 31.6486 23.0239 31.4162 23.084C31.1838 23.1742 30.9669 23.2795 30.7499 23.3697C30.5795 23.4449 30.409 23.5201 30.2386 23.5953C30.2076 23.6104 30.1766 23.6104 30.1611 23.6254C30.0062 23.7005 29.8667 23.7607 29.7272 23.8359C29.6808 23.8509 29.6498 23.8659 29.6188 23.881C29.4483 23.9562 29.2779 24.0464 29.1384 24.1216C29.03 24.1667 28.9215 24.2268 28.8285 24.272C28.782 24.302 28.7201 24.3321 28.6891 24.3471C28.5496 24.4223 28.4102 24.4975 28.2862 24.5727C28.1467 24.6479 28.0228 24.7231 27.9143 24.7983C27.8059 24.8734 27.6974 24.9336 27.6044 25.0088C27.5889 25.0238 27.5734 25.0238 27.5579 25.0388C27.465 25.099 27.3565 25.1742 27.2635 25.2494C27.2635 25.2494 27.248 25.2644 27.2326 25.2794C27.1551 25.3396 27.0776 25.3997 27.0001 25.4599C26.9692 25.4749 26.9381 25.505 26.9072 25.52C26.8297 25.5802 26.7522 25.6554 26.6747 25.7155C26.6592 25.7456 26.6283 25.7606 26.6127 25.7757C26.5198 25.8659 26.4268 25.9411 26.3338 26.0313C26.3183 26.0313 26.3183 26.0464 26.3029 26.0614C26.2099 26.1366 26.1169 26.2268 26.0239 26.317C26.0084 26.3321 26.0084 26.3471 25.993 26.3471C25.9155 26.4222 25.838 26.4974 25.7605 26.5877C25.7296 26.6177 25.6831 26.6478 25.6521 26.6779C25.5746 26.7681 25.4816 26.8583 25.3887 26.9486C25.3731 26.9786 25.3422 26.9937 25.3267 27.0237C25.2027 27.144 25.0942 27.2643 24.9703 27.3846C24.9548 27.3997 24.9393 27.4147 24.9238 27.4297C24.6759 27.6854 24.4124 27.941 24.1335 28.1666C23.8546 28.4072 23.5602 28.6327 23.2658 28.8282C22.9559 29.0387 22.6615 29.2192 22.3361 29.3996C22.0262 29.565 21.7008 29.7154 21.3599 29.8508C21.0345 29.9861 20.6936 30.1064 20.3527 30.2116C19.7019 30.347 19.0357 30.6026 18.4623 30.6477C18.3384 30.6477 18.1989 30.6778 18.075 30.6928C17.9355 30.7229 17.8115 30.753 17.6876 30.7831C17.5636 30.8282 17.4397 30.8733 17.3157 30.9184C17.1917 30.9635 17.0678 31.0237 16.9438 31.0838C16.8354 31.159 16.7114 31.2192 16.6029 31.2943C16.4945 31.3695 16.386 31.4597 16.293 31.55C16.1846 31.6252 16.0761 31.7304 15.9831 31.8206C15.8901 31.9259 15.7972 32.0161 15.7197 32.1214C15.6422 32.2417 15.5493 32.347 15.4873 32.4673C15.4098 32.5725 15.3323 32.6928 15.2703 32.8131C15.2083 32.9484 15.1464 33.0687 15.0999 33.2041C15.0534 33.3244 15.0069 33.4597 14.9604 33.5951C14.9295 33.7153 14.8984 33.8356 14.883 33.9559C14.883 33.971 14.8675 33.986 14.8675 34.0011C14.8365 34.1364 14.8365 34.3168 14.821 34.4071C14.8054 34.5123 14.79 34.6026 14.79 34.7078C14.79 34.768 14.79 34.8431 14.8055 34.9033C14.821 35.0086 14.8365 35.0988 14.8675 35.189C14.8985 35.2792 14.9295 35.3695 14.976 35.4597C14.976 35.4747 14.976 35.4747 14.976 35.4747C15.0225 35.565 15.0845 35.6552 15.1464 35.7454C15.2084 35.8356 15.2704 35.9259 15.3479 36.0161C15.4253 36.0913 15.5183 36.1815 15.6113 36.2567C15.7043 36.3469 15.7972 36.4221 15.9057 36.4973C16.2776 36.8131 16.3705 36.9183 16.8509 37.1589C16.9284 37.204 17.0058 37.2341 17.0988 37.2792C17.1143 37.2792 17.1298 37.2943 17.1453 37.2943C17.1453 37.3243 17.1453 37.3394 17.1608 37.3695C17.1763 37.4898 17.2073 37.6101 17.2383 37.7304C17.2693 37.8657 17.3158 37.986 17.3623 38.0913C17.4088 38.1815 17.4397 38.2717 17.4862 38.3619C17.5017 38.392 17.5172 38.4221 17.5327 38.4371C17.5947 38.5574 17.6567 38.6627 17.7186 38.7679C17.7961 38.8732 17.8736 38.9785 17.9511 39.0837C18.0285 39.174 18.1215 39.2792 18.2145 39.3694C18.3075 39.4597 18.4004 39.5348 18.5089 39.6251C18.5089 39.6251 18.5244 39.6401 18.5399 39.6401C18.6328 39.7153 18.7258 39.7905 18.8188 39.8507C18.9272 39.9259 19.0357 39.986 19.1597 40.0462C19.2681 40.1063 19.3921 40.1665 19.5161 40.2116C19.609 40.2567 19.7175 40.2868 19.826 40.3168C19.8415 40.3319 19.8569 40.3319 19.888 40.3469C19.95 40.362 20.0274 40.3769 20.0894 40.392C20.0429 41.204 20.0274 41.9709 20.1514 42.2416C20.2909 42.5423 20.9726 41.6251 21.6544 40.5724C21.5615 41.61 21.4995 42.828 21.6544 43.1889C21.8249 43.5649 22.7546 42.392 23.5603 41.0987C34.5463 38.6326 44.5717 46.0009 45.6253 56.4067C45.4239 54.7827 43.363 53.8805 42.4179 54.106C41.953 55.2188 41.1627 56.6473 39.8922 57.5345C40.0006 56.5421 39.9542 55.5195 39.7372 54.5271C39.3963 55.9105 38.73 57.2037 37.8158 58.3165C36.3438 58.4217 34.8717 57.73 34.097 56.6925C34.035 56.6473 34.0195 56.5571 33.973 56.497C33.9265 56.3917 33.88 56.2864 33.8491 56.1812C33.8026 56.0759 33.7716 55.9707 33.7561 55.8654C33.7406 55.7601 33.7406 55.6549 33.7406 55.5346C33.7406 55.4594 33.7406 55.3842 33.7406 55.309C33.7561 55.2038 33.7871 55.0985 33.818 54.9932C33.849 54.888 33.88 54.7827 33.9265 54.6774C33.9885 54.5722 34.035 54.4669 34.1125 54.3617C34.3759 53.6399 34.3759 53.0534 33.8955 52.7076C33.8026 52.6474 33.7096 52.6023 33.6011 52.5572C33.5391 52.5421 33.4617 52.5121 33.3997 52.497C33.3532 52.482 33.3222 52.467 33.2757 52.4519C33.1672 52.4218 33.0588 52.3917 32.9503 52.3767C32.8418 52.3467 32.7334 52.3316 32.6249 52.3316C32.5165 52.3165 32.3925 52.3016 32.284 52.3016C32.2066 52.3016 32.1291 52.3166 32.0516 52.3166C31.9276 52.3166 31.8192 52.3317 31.7107 52.3617C31.6022 52.3768 31.4938 52.3918 31.3853 52.4219C31.2768 52.4519 31.1684 52.4821 31.0599 52.5272C30.9515 52.5723 30.8585 52.6174 30.75 52.6625C30.657 52.7076 30.5641 52.7678 30.4556 52.8129C26.8452 55.0985 28.9991 60.4518 31.4628 62.0007C30.5331 62.1661 29.5879 62.3616 29.3245 62.5571C29.3089 62.5721 29.2935 62.5871 29.2935 62.5871C29.9598 62.9781 30.6571 63.3089 31.3853 63.5946C32.377 63.9104 33.4307 64.1961 33.8955 64.3164V64.3315C35.1816 64.5871 36.4832 64.6773 37.8003 64.6021C44.6646 64.136 50.2894 59.0684 51.312 52.3918C51.343 52.5272 51.374 52.6474 51.405 52.7828C51.4515 53.0535 51.5135 53.3392 51.5445 53.6249C51.5445 53.6249 51.5445 53.6249 51.5445 53.64C51.5754 53.7753 51.5909 53.9106 51.6065 54.0309C51.6065 54.061 51.6065 54.076 51.6065 54.0911C51.622 54.2264 51.6374 54.3618 51.6374 54.4821C51.6529 54.6475 51.6684 54.8129 51.6684 54.9783C51.6684 55.0535 51.6684 55.1287 51.6684 55.2189C51.6684 55.2941 51.6839 55.3843 51.6839 55.4595C51.6839 55.5497 51.6684 55.6399 51.6684 55.7302C51.6684 55.8054 51.6684 55.8805 51.6684 55.9407C51.6684 56.046 51.6529 56.1362 51.6529 56.2414C51.6529 56.3016 51.6529 56.3617 51.6373 56.4369C51.6373 56.5422 51.6218 56.6474 51.6218 56.7677C51.6063 56.8129 51.6063 56.858 51.6063 56.9031C51.5908 57.0234 51.5753 57.1286 51.5598 57.2489C51.5598 57.2941 51.5598 57.3392 51.5443 57.3843C51.5287 57.5346 51.4978 57.67 51.4823 57.8204V57.8354V57.8505C51.4513 57.9858 51.4203 58.1362 51.3893 58.2715C51.3893 58.2866 51.3893 58.3016 51.3893 58.3166C51.3583 58.452 51.3273 58.5873 51.2963 58.7226C51.2963 58.7377 51.2808 58.7678 51.2808 58.7828C51.2499 58.9182 51.2188 59.0535 51.1724 59.1888C51.1724 59.2039 51.1724 59.2189 51.1724 59.2339C51.1259 59.3843 51.0794 59.5197 51.0484 59.655C51.0329 59.67 51.0329 59.685 51.0329 59.685C50.9864 59.8354 50.9399 59.9858 50.8934 60.1362C50.8314 60.2865 50.785 60.4219 50.723 60.5722C50.661 60.7226 50.6145 60.873 50.5525 61.0083C50.4905 61.1587 50.4286 61.294 50.3666 61.4444H50.3511C50.2891 61.5797 50.2271 61.7301 50.1496 61.8655C50.1341 61.9106 50.1187 61.9406 50.1031 61.9707C50.0876 61.9858 50.0876 62.0008 50.0722 62.0158C49.065 63.9857 47.5775 65.715 45.7181 67.0684C45.5941 67.1436 45.4701 67.2338 45.3462 67.324C45.3152 67.3541 45.2687 67.3691 45.2377 67.3992C45.1292 67.4744 45.0208 67.5496 44.8968 67.6248L44.9433 67.715H44.9588C45.1757 67.6849 45.3927 67.6548 45.6096 67.6248H45.6251C46.028 67.5646 46.4309 67.4894 46.8337 67.4142C46.9422 67.3992 47.0662 67.3691 47.1746 67.339C47.2521 67.324 47.3141 67.309 47.3916 67.2939C47.5 67.2788 47.6085 67.2488 47.717 67.2338C47.8099 67.2037 47.9029 67.1886 47.9959 67.1586C49.5454 66.7977 51.0484 66.3014 52.4894 65.715C50.0257 68.9781 46.7253 71.6096 42.867 73.3389C44.6489 73.2186 46.4309 72.9329 48.1508 72.4517C54.3953 70.6623 59.6482 66.5871 62.7937 61.0985C62.1584 64.5721 60.7328 67.8804 58.6255 70.7675C60.1285 69.8051 61.5076 68.6924 62.7627 67.4292C66.2336 63.9105 68.5114 59.4444 69.2861 54.6475C69.813 57.0234 69.9679 59.4745 69.7355 61.8955C80.9229 46.7529 70.6652 31.0539 66.3731 26.9187C66.3575 26.8886 66.3421 26.8736 66.3421 26.8435C66.3265 26.8585 66.3265 26.8585 66.3265 26.8735C66.3265 26.8585 66.3265 26.8585 66.311 26.8435C66.311 27.0239 66.2955 27.2044 66.2801 27.3848C66.2336 27.7307 66.1871 28.0615 66.1251 28.3923C66.0476 28.7232 65.9547 29.054 65.8617 29.3848C65.7532 29.7006 65.6293 30.0314 65.4898 30.3472C65.3504 30.6479 65.1954 30.9637 65.025 31.2645C64.8545 31.5502 64.6686 31.8509 64.4671 32.1216C64.2657 32.4073 64.0488 32.678 63.8318 32.9336C63.5994 33.2043 63.3515 33.4449 63.1036 33.6855C62.9486 33.8208 62.8092 33.9411 62.6542 34.0614C62.5302 34.1667 62.4218 34.2569 62.2978 34.3621C62.0189 34.5727 61.74 34.7682 61.4301 34.9486C61.1357 35.129 60.8258 35.3095 60.5159 35.4599C60.1905 35.6102 59.8651 35.7456 59.5397 35.8809C59.2143 36.0012 58.8734 36.1065 58.5325 36.1967C58.1916 36.2869 57.8352 36.3621 57.4943 36.4223C57.138 36.4824 56.7816 36.5125 56.4407 36.5426C56.1928 36.5576 55.9448 36.5726 55.6969 36.5726C55.3405 36.5726 54.9841 36.5426 54.6433 36.5124C54.2869 36.4824 53.9305 36.4372 53.5896 36.3621C53.2332 36.3019 52.8923 36.2117 52.5514 36.1064H52.5359C52.8768 36.0764 53.2177 36.0463 53.5586 35.9861C53.915 35.926 54.2559 35.8508 54.5967 35.7606C54.9376 35.6703 55.2785 35.5651 55.6039 35.4448C55.9448 35.3245 56.2702 35.1741 56.5801 35.0237C56.9055 34.8734 57.1999 34.708 57.5098 34.5275C57.8042 34.332 58.0986 34.1365 58.3775 33.926C58.6565 33.7155 58.9199 33.4899 59.1678 33.2493C59.4312 33.0238 59.6636 32.7681 59.8961 32.5125C60.1285 32.2418 60.3454 31.9712 60.5469 31.7005C60.5778 31.6554 60.6089 31.5952 60.6398 31.5501C60.7948 31.3095 60.9497 31.0689 61.0892 30.8283C61.2596 30.5276 61.4146 30.2268 61.554 29.9111C61.6935 29.5953 61.8175 29.2795 61.9259 28.9487C62.0344 28.6329 62.1119 28.3021 62.1893 27.9712C62.2514 27.6254 62.3133 27.2946 62.3443 26.9637C62.3753 26.6179 62.4063 26.272 62.4063 25.9412C62.4063 25.7006 62.3908 25.46 62.3753 25.2194C62.3444 24.8736 62.2979 24.5427 62.2514 24.2119C62.1894 23.866 62.1119 23.5352 62.0189 23.2044C61.9105 22.8886 61.802 22.5578 61.6781 22.242C61.5541 21.9262 61.3991 21.6104 61.2442 21.3097C61.0737 21.009 60.9033 20.7082 60.7174 20.4225C60.5159 20.1368 60.3145 19.8661 60.0975 19.5954C59.8651 19.3398 59.6327 19.0842 59.3848 18.8285C59.2608 18.7082 59.1214 18.5729 58.9819 18.4526C58.2846 17.9263 57.5564 17.4301 56.8281 16.979C56.7196 16.9188 56.6267 16.8737 56.5182 16.8286C56.0068 16.5128 55.5264 16.3473 55.0461 16.1969Z" stroke="url(#paint1_linear_1_1725)" stroke-width="3"/>
</g>
</g>
</g>
</g>
</g>
<defs>
<linearGradient id="paint0_linear_1_1725" x1="-20.4181" y1="90.8919" x2="77.526" y2="11.5155" gradientUnits="userSpaceOnUse">
<stop stop-color="#03DAF2"/>
<stop offset="1" stop-color="#13E780"/>
</linearGradient>
<linearGradient id="paint1_linear_1_1725" x1="0.33006" y1="75.0209" x2="65.3022" y2="20.5494" gradientUnits="userSpaceOnUse">
<stop stop-color="#03DAF2"/>
<stop offset="1" stop-color="#13E780"/>
</linearGradient>
<clipPath id="clip0_1_1725">
<rect width="88" height="88" fill="white" transform="translate(0.790039 0.339844)"/>
</clipPath>
<clipPath id="clip1_1_1725">
<rect width="88" height="88" fill="white" transform="translate(0.790039 0.339844)"/>
</clipPath>
<clipPath id="clip2_1_1725">
<rect width="88" height="88" fill="white" transform="translate(0.790039 0.339844)"/>
</clipPath>
</defs>
</svg>
