<svg width="89" height="89" viewBox="0 0 89 89" fill="none" xmlns="http://www.w3.org/2000/svg">
<g clip-path="url(#clip0_1_1683)">
<g clip-path="url(#clip1_1_1683)">
<g clip-path="url(#clip2_1_1683)">
<mask id="mask0_1_1683" style="mask-type:luminance" maskUnits="userSpaceOnUse" x="0" y="0" width="89" height="89">
<path d="M88.79 0.339844H0.790039V88.3398H88.79V0.339844Z" fill="white"/>
</mask>
<g mask="url(#mask0_1_1683)">
<path d="M44.8703 88.3398H44.7102C38.8522 88.3457 33.0534 87.1699 27.6604 84.8828C22.4304 82.6778 17.6798 79.4751 13.675 75.4531C9.65163 71.4483 6.44874 66.6966 4.24537 61.4648C1.94595 56.0493 0.770436 50.2232 0.790286 44.3398C0.77194 38.4554 1.94804 32.6285 4.24732 27.2119C6.45062 21.981 9.65354 17.2301 13.677 13.2265C17.6802 9.20226 22.4316 5.99923 27.6633 3.7969C33.0481 1.50934 38.84 0.333451 44.6906 0.33987H44.8899C50.7394 0.333993 56.5303 1.50987 61.9143 3.7969C67.1452 6.0002 71.896 9.20312 75.8996 13.2265C79.9232 17.2305 83.1266 21.9812 85.3313 27.2119C87.6305 32.6286 88.8072 38.4553 88.7902 44.3398C88.8075 50.2233 87.6311 56.0491 85.3322 61.4648C83.1266 66.695 79.9233 71.4455 75.9006 75.4502C71.897 79.4736 67.1462 82.6766 61.9152 84.8799C56.5246 87.1694 50.727 88.3463 44.8703 88.3398ZM44.7902 4.33987C34.191 4.37047 24.0351 8.59503 16.5402 16.0898C9.04546 23.5847 4.82089 33.7406 4.79029 44.3398C4.81958 54.9395 9.04322 65.0967 16.5383 72.5918C24.0334 80.0869 34.1906 84.3105 44.7902 84.3398C55.3903 84.3118 65.5478 80.0882 73.0432 72.5928C80.5386 65.0974 84.7623 54.9399 84.7902 44.3398C84.761 33.7402 80.5373 23.583 73.0422 16.0879C65.5471 8.5928 55.3899 4.36916 44.7902 4.33987Z" fill="url(#paint0_linear_1_1683)"/>
<path d="M42.191 24.3409L42.1968 24.3463C42.2831 24.4267 42.3776 24.5122 42.4758 24.6011C42.6798 24.7856 42.8995 24.9845 43.0941 25.1807L43.5976 25.6886L43.1142 26.2157C41.4315 28.0506 39.7464 30.1404 38.1514 32.4156L37.9521 32.7L37.6063 32.7319C34.8703 32.9849 32.2298 33.3985 29.8222 33.9483L29.1171 34.1093L28.9306 33.4105C28.8094 32.9566 28.7111 32.4934 28.6158 32.044C28.5798 31.8743 28.5442 31.7066 28.508 31.5421L28.5059 31.5329L28.5042 31.5237C27.9397 28.618 27.8376 26.0313 28.1323 24.0028C28.4191 22.0289 29.1153 20.3737 30.3594 19.6454M42.191 24.3409L30.3594 19.6454M42.191 24.3409L42.1851 24.3357M30.3594 19.6454C31.6701 18.8771 33.5518 19.1205 35.5105 19.9208M30.3594 19.6454L35.5105 19.9208M42.1851 24.3357C39.8356 22.2384 37.5229 20.7431 35.5105 19.9208M42.1851 24.3357L35.5105 19.9208M26.1598 51.6854C23.2218 50.666 20.7545 49.3474 19.0241 47.8481M26.1598 51.6854L19.0241 47.8481M26.1598 51.6854L26.1666 51.6877M19.0241 47.8481C17.5274 46.554 16.5521 45.1075 16.5521 43.7474C16.5521 42.3162 17.5822 40.8914 19.0985 39.6559C20.6516 38.3904 22.8711 37.1914 25.6008 36.2299C26.2638 35.9912 26.9698 35.7775 27.6535 35.5707L27.6634 35.5677L28.3796 35.351L28.598 36.0667C29.3249 38.4496 30.2806 40.9519 31.4429 43.4806L31.585 43.7897L31.4461 44.1002C30.2808 46.7044 29.302 49.2544 28.5755 51.6586L27.8576 51.4417M19.0241 47.8481L27.8576 51.4417M26.1666 51.6877L26.1742 51.6902C26.6531 51.8512 27.1501 52.0183 27.6499 52.1624L27.8576 51.4417M26.1666 51.6877L27.8576 51.4417M68.3114 37.6509H66.1806C65.152 37.1301 63.9961 36.6337 62.713 36.2023C62.1515 36.0135 61.5453 35.8254 60.9495 35.6405L60.9447 35.639L60.2267 35.4161L60.0056 36.1347C59.8484 36.6457 59.6946 37.1453 59.5227 37.6509H58.4544C58.6559 37.0795 58.8419 36.515 59.0182 35.9517L59.2592 35.182L58.474 34.9975C56.7652 34.5961 54.9408 34.2659 53.0241 34.0302L51.4449 33.8359L52.3001 35.1777C52.913 36.1392 53.5044 37.1254 54.0745 38.1142C54.1124 38.1851 54.1513 38.2555 54.1902 38.3248C53.8912 38.4978 53.6093 38.7003 53.3498 38.9293C53.2981 38.8393 53.2455 38.7482 53.1916 38.6558C52.3044 37.0785 51.3267 35.5292 50.3302 34.0333L50.1281 33.73L49.7648 33.7014C47.9702 33.5604 46.1529 33.4899 44.313 33.4899C42.4733 33.4899 40.6558 33.5604 38.8836 33.7015L38.5223 33.7303L38.3204 34.0312C37.2955 35.5582 36.3417 37.107 35.4357 38.6769C34.5255 40.2541 33.6871 41.8752 32.8975 43.515L32.7408 43.8404L32.8975 44.1658C33.6871 45.8056 34.5255 47.4266 35.4357 49.0039C36.3444 50.5784 37.3216 52.127 38.3434 53.6495L38.5486 53.9552L38.9159 53.9799C40.665 54.0975 42.457 54.1443 44.313 54.1443C46.1231 54.1443 47.9412 54.0975 49.764 53.9561L50.1295 53.9277L50.3317 53.6219C50.7587 52.9759 51.1759 52.3249 51.5834 51.6689V54.8503C51.4055 54.8657 51.2198 54.8824 51.0283 54.9038L50.6908 54.9416L50.4966 55.2203C48.8732 57.5495 47.2334 59.6618 45.6003 61.4691L45.1126 62.0089L45.6372 62.5128L45.6433 62.5187C46.1232 62.9797 46.6183 63.4552 47.1392 63.909L47.1406 63.9102C48.6669 65.2329 50.1631 66.2673 51.5603 67.0267V67.2719C51.5603 67.6099 51.5922 67.9399 51.6534 68.2589C50.0092 67.4487 48.2472 66.2478 46.4649 64.7072C45.9339 64.2414 45.4003 63.77 44.9148 63.2803L44.3822 62.7431L43.8496 63.2803C43.4765 63.6566 43.079 64.0134 42.6621 64.3871C40.1211 66.6307 37.5784 68.184 35.3236 68.9568C33.0552 69.7342 31.1863 69.6897 29.8714 68.9252C28.5949 68.1794 27.6655 66.6676 27.2188 64.4369C26.7739 62.2154 26.8316 59.3782 27.4415 56.164C27.4526 56.1078 27.4637 56.0517 27.4748 55.9957C27.6028 55.3487 27.7286 54.7127 27.8913 54.0974L28.0756 53.4003L27.3863 53.1887C26.854 53.0253 26.338 52.8669 25.8242 52.6866L25.8195 52.685C22.6346 51.5914 20.0329 50.152 18.2424 48.5697C16.4421 46.9788 15.54 45.3185 15.54 43.7706C15.54 42.2741 16.3745 40.7067 18.0627 39.2054C19.7455 37.7089 22.2083 36.3446 25.2705 35.2733L25.2755 35.2715C25.9761 35.0208 26.6723 34.7944 27.4112 34.5911L28.1161 34.3972L27.9402 33.6876C27.8064 33.1477 27.6889 32.5918 27.5708 32.0327C27.5504 31.9362 27.53 31.8396 27.5094 31.743C26.8768 28.4696 26.7913 25.5735 27.2176 23.3048C27.6461 21.025 28.5669 19.4855 29.849 18.7319C31.1813 17.9594 33.0624 17.9331 35.3562 18.758C37.6365 19.5781 40.2144 21.2048 42.8149 23.5417L43.7773 24.443L44.2965 24.9293L44.8096 24.4365C45.2843 23.9805 45.7593 23.547 46.2576 23.1129L46.2593 23.1115C48.7597 20.9204 51.2073 19.4015 53.368 18.6438C55.538 17.8829 57.3145 17.9214 58.5948 18.6634L58.5963 18.6643C59.9388 19.438 60.9024 21.0674 61.3383 23.4908C61.7714 25.8991 61.6577 28.9755 60.9566 32.4344C60.9397 32.511 60.923 32.5873 60.9064 32.6635C60.8304 33.0119 60.7553 33.356 60.6651 33.7019L60.4823 34.4025L61.176 34.6098C61.7858 34.7921 62.4207 34.9978 63.0367 35.2049C65.0693 35.9196 66.8412 36.7442 68.3114 37.6509ZM34.5236 49.5114L34.5226 49.5097C33.9533 48.522 33.4056 47.5094 32.8565 46.448L32.1238 45.0314L31.5001 46.4993C30.7278 48.3169 30.0973 50.1077 29.5616 51.8224L29.3181 52.6021L30.1156 52.7784C31.8256 53.1564 33.6735 53.463 35.636 53.6751L37.1881 53.8428L36.349 52.5263C35.7325 51.559 35.1164 50.5463 34.5236 49.5114ZM31.5213 41.1074L32.1402 42.5898L32.8793 41.1635C33.4048 40.1496 33.9532 39.1355 34.5245 38.1212C35.0957 37.1304 35.6892 36.1405 36.3278 35.1283L37.1734 33.788L35.6008 33.9838C33.7077 34.2196 31.8868 34.5493 30.1847 34.9256L29.3941 35.1004L29.6289 35.8754C30.1439 37.5754 30.775 39.3195 31.5213 41.1074ZM53.2495 19.8232C51.3569 20.5831 49.1781 21.9658 46.9563 23.9099C46.4869 24.3125 46.0043 24.7498 45.564 25.2186L45.0877 25.7257L45.5577 26.2387C47.2151 28.0478 48.8767 30.1364 50.4727 32.436L50.6719 32.723L51.0198 32.7552C53.756 33.0082 56.394 33.4215 58.7973 33.9933L59.5301 34.1676L59.7012 33.434L59.7035 33.4243C59.7934 33.039 59.8887 32.6305 59.9612 32.2183C60.5938 29.1297 60.7248 26.3664 60.4284 24.2007C60.14 22.0931 59.4128 20.3278 58.1013 19.5733C56.8626 18.8557 55.0885 19.0848 53.2495 19.8232ZM44.8702 27.0431L44.3185 26.4311L43.7609 27.0376C42.5674 28.3359 41.3762 29.7731 40.2102 31.3255L39.2494 32.6047L40.8473 32.525C43.1501 32.41 45.4529 32.41 47.7557 32.525L49.3537 32.6047L48.3928 31.3255C47.2268 29.7731 46.0372 28.3378 44.8702 27.0431ZM41.9988 63.6025L41.5013 63.0412L41.9999 63.6015C42.4026 63.2431 42.7828 62.8837 43.1402 62.5232L43.644 62.0151L43.1601 61.488C41.4544 59.63 39.7691 57.54 38.1506 55.2407L37.9483 54.9533L37.5981 54.9249C34.7704 54.6948 32.131 54.3043 29.7479 53.7778L29.034 53.62L28.8581 54.3297C28.6967 54.9807 28.5302 55.6754 28.4101 56.3527C27.8815 59.2216 27.803 61.7557 28.1134 63.7411C28.4163 65.6793 29.1234 67.2887 30.3596 68.0122C31.53 68.6956 33.258 68.581 35.1393 67.9084C37.2808 67.1473 39.6665 65.6698 41.9988 63.6025ZM43.8304 60.6668L44.3881 61.2725L44.9393 60.6609C46.1091 59.363 47.2997 57.9029 48.4652 56.3277L49.3955 55.0704L47.8326 55.1322C46.6674 55.1783 45.4788 55.2013 44.29 55.2013C43.1245 55.2013 41.9824 55.1783 40.8638 55.1322L39.2833 55.0672L40.2333 56.332C41.3999 57.8852 42.6142 59.3457 43.8304 60.6668Z" stroke="url(#paint1_linear_1_1683)" stroke-width="1.5"/>
<path d="M48.7615 43.0391C49.1633 45.5379 47.4807 47.8815 45.0179 48.2844C42.5552 48.6873 40.2244 47.0003 39.8225 44.5015C39.4207 42.0027 41.1033 39.6591 43.5661 39.2562C46.0289 38.8533 48.3597 40.5404 48.7615 43.0391Z" stroke="url(#paint2_linear_1_1683)" stroke-width="1.5"/>
<path d="M69.8722 69.5207H57.98C56.5464 69.5207 55.3882 68.3647 55.3882 66.9466V43.7474C55.3882 42.3293 56.5464 41.1733 57.98 41.1733H69.8722C71.3059 41.1733 72.464 42.3293 72.464 43.7474V66.9466C72.464 68.3448 71.3025 69.5207 69.8722 69.5207ZM57.98 42.0444C57.0297 42.0444 56.2851 42.8047 56.2851 43.7474V66.9466C56.2851 67.8541 57.0179 68.6496 57.98 68.6496H69.8722C70.8226 68.6496 71.5672 67.8893 71.5672 66.9466V43.7474C71.5672 42.8399 70.8344 42.0444 69.8722 42.0444H57.98Z" stroke="url(#paint3_linear_1_1683)" stroke-width="1.5"/>
<path d="M65.5265 44.9097V44.9293L65.5275 44.9473C65.5275 44.9473 65.5251 44.9511 65.5221 44.9541C65.5127 44.9636 65.4957 44.9733 65.4699 44.9733H62.5429C62.5297 44.9733 62.5224 44.9709 62.5185 44.9692C62.514 44.9673 62.5092 44.9642 62.5046 44.9594C62.4949 44.9495 62.4863 44.933 62.4863 44.9097V44.8632C62.4863 44.8472 62.4893 44.8375 62.4917 44.8317C62.4943 44.8255 62.498 44.8201 62.5027 44.8154C62.5123 44.8059 62.5257 44.7996 62.5429 44.7996H65.4699C65.4831 44.7996 65.4904 44.8021 65.4943 44.8038C65.4988 44.8057 65.5036 44.8088 65.5082 44.8136C65.5179 44.8235 65.5265 44.84 65.5265 44.8632V44.9097Z" stroke="url(#paint4_linear_1_1683)" stroke-width="1.5"/>
<path d="M64.3514 65.7146C64.3514 65.9082 64.1901 66.0804 63.9721 66.0804C63.7541 66.0804 63.5928 65.9082 63.5928 65.7146C63.5928 65.5211 63.7541 65.3489 63.9721 65.3489C64.1901 65.3489 64.3514 65.5211 64.3514 65.7146Z" stroke="url(#paint5_linear_1_1683)" stroke-width="1.5"/>
</g>
</g>
</g>
</g>
<defs>
<linearGradient id="paint0_linear_1_1683" x1="-20.4181" y1="90.8919" x2="77.526" y2="11.5155" gradientUnits="userSpaceOnUse">
<stop stop-color="#03DAF2"/>
<stop offset="1" stop-color="#13E780"/>
</linearGradient>
<linearGradient id="paint1_linear_1_1683" x1="1.32644" y1="71.8045" x2="60.816" y2="20.9185" gradientUnits="userSpaceOnUse">
<stop stop-color="#03DAF2"/>
<stop offset="1" stop-color="#13E780"/>
</linearGradient>
<linearGradient id="paint2_linear_1_1683" x1="37.4653" y1="50.5927" x2="47.6339" y2="39.3031" gradientUnits="userSpaceOnUse">
<stop stop-color="#03DAF2"/>
<stop offset="1" stop-color="#13E780"/>
</linearGradient>
<linearGradient id="paint3_linear_1_1683" x1="50.1615" y1="71.1363" x2="77.4685" y2="57.3633" gradientUnits="userSpaceOnUse">
<stop stop-color="#03DAF2"/>
<stop offset="1" stop-color="#13E780"/>
</linearGradient>
<linearGradient id="paint4_linear_1_1683" x1="60.6418" y1="45.7719" x2="62.0769" y2="42.6162" gradientUnits="userSpaceOnUse">
<stop stop-color="#03DAF2"/>
<stop offset="1" stop-color="#13E780"/>
</linearGradient>
<linearGradient id="paint5_linear_1_1683" x1="62.2985" y1="66.8951" x2="64.7883" y2="64.853" gradientUnits="userSpaceOnUse">
<stop stop-color="#03DAF2"/>
<stop offset="1" stop-color="#13E780"/>
</linearGradient>
<clipPath id="clip0_1_1683">
<rect width="88" height="88" fill="white" transform="translate(0.790039 0.339844)"/>
</clipPath>
<clipPath id="clip1_1_1683">
<rect width="88" height="88" fill="white" transform="translate(0.790039 0.339844)"/>
</clipPath>
<clipPath id="clip2_1_1683">
<rect width="88" height="88" fill="white" transform="translate(0.790039 0.339844)"/>
</clipPath>
</defs>
</svg>
