<svg width="81" height="81" viewBox="0 0 81 81" fill="none" xmlns="http://www.w3.org/2000/svg">
<g clip-path="url(#clip0_1_1133)">
<mask id="mask0_1_1133" style="mask-type:luminance" maskUnits="userSpaceOnUse" x="0" y="0" width="81" height="81">
<path d="M80.3199 0.23999H0.399902V80.16H80.3199V0.23999Z" fill="white"/>
</mask>
<g mask="url(#mask0_1_1133)">
<path d="M40.4329 80.16H40.2874C34.9673 80.1654 29.701 79.0975 24.8031 77.0204C20.0533 75.0179 15.7389 72.1092 12.1018 68.4565C8.44783 64.8195 5.53903 60.504 3.53797 55.7526C1.44967 50.8344 0.382099 45.5432 0.400127 40.2C0.383465 34.8559 1.45158 29.564 3.53974 24.6447C5.54074 19.8941 8.44958 15.5795 12.1036 11.9435C15.7393 8.28868 20.0544 5.37974 24.8057 3.37963C29.6962 1.30211 34.9563 0.234185 40.2697 0.240014H40.4506C45.7631 0.234677 51.0222 1.30259 55.9119 3.37963C60.6625 5.38063 64.9771 8.28946 68.6131 11.9435C72.2672 15.5798 75.1765 19.8943 77.1787 24.6447C79.2669 29.5641 80.3356 34.8558 80.3201 40.2C80.3358 45.5433 79.2674 50.8341 77.1796 55.7526C75.1765 60.5026 72.2673 64.8169 68.614 68.4539C64.978 72.1079 60.6634 75.0167 55.9127 77.0177C51.0171 79.0971 45.7518 80.1659 40.4329 80.16ZM40.3601 3.87274C30.7341 3.90054 21.5107 7.73721 14.704 14.5439C7.89732 21.3505 4.06065 30.574 4.03285 40.2C4.05946 49.8264 7.89529 59.051 14.7022 65.8579C21.5091 72.6648 30.7337 76.5007 40.3601 76.5273C49.9869 76.5019 59.2117 72.666 66.0189 65.8588C72.8261 59.0516 76.662 49.8268 76.6874 40.2C76.6608 30.5736 72.825 21.349 66.018 14.5421C59.2111 7.73518 49.9865 3.89934 40.3601 3.87274Z" fill="url(#paint0_linear_1_1133)"/>
<path d="M31.7121 34.7499C31.6514 34.6308 31.561 34.5294 31.4496 34.4556C31.3383 34.3817 31.2096 34.338 31.0763 34.3285L24.5456 33.8926C24.3806 33.8793 24.2158 33.92 24.076 34.0086C23.9363 34.0973 23.8292 34.229 23.7709 34.3839L19.0629 46.4164C18.9999 46.5739 18.9902 46.7477 19.0352 46.9112C19.0803 47.0747 19.1777 47.219 19.3124 47.322C19.4472 47.4249 19.612 47.4809 19.7816 47.4814C19.9512 47.4819 20.1163 47.4268 20.2517 47.3246L24.1569 44.3939L26.4319 44.848C26.6118 44.8841 26.7986 44.8553 26.9592 44.7667C27.1198 44.678 27.2438 44.5354 27.3092 44.364C28.4735 41.28 29.9372 38.3176 31.6794 35.5192C31.7512 35.4049 31.792 35.2738 31.7978 35.1389C31.8035 35.004 31.774 34.8699 31.7121 34.7499ZM26.095 43.196L24.1188 42.801C24.0117 42.7801 23.9014 42.7818 23.7951 42.806C23.6887 42.8303 23.5886 42.8765 23.5012 42.9417L21.5032 44.443L25.0097 35.481L29.6968 35.7934C28.3031 38.1606 27.0975 40.6336 26.0913 43.1897L26.095 43.196Z" fill="url(#paint1_linear_1_1133)"/>
<path d="M46.1886 55.5392L45.7527 49.0075C45.7439 48.8734 45.7004 48.7438 45.6265 48.6315C45.5525 48.5192 45.4507 48.428 45.331 48.3668C45.2113 48.3057 45.0777 48.2767 44.9434 48.2826C44.8091 48.2886 44.6786 48.3293 44.5648 48.4009C41.7663 50.1429 38.8039 51.6066 35.72 52.771C35.5485 52.8362 35.4057 52.9602 35.317 53.1209C35.2284 53.2816 35.1996 53.4684 35.2359 53.6483L35.69 55.9233L32.7593 59.8285C32.6728 59.9439 32.6201 60.0811 32.6071 60.2247C32.5942 60.3683 32.6215 60.5127 32.686 60.6417C32.7505 60.7706 32.8496 60.8791 32.9723 60.9549C33.0949 61.0307 33.2363 61.0709 33.3805 61.0709C33.4773 61.0705 33.5732 61.053 33.6639 61.0191L45.6963 56.3111C45.8496 56.2512 45.9799 56.1442 46.0683 56.0054C46.1568 55.8667 46.1989 55.7034 46.1886 55.5392ZM35.6391 58.5798L37.1404 56.5818C37.2058 56.4944 37.252 56.3943 37.2761 56.2879C37.3002 56.1815 37.3016 56.0712 37.2802 55.9642L36.8852 53.988C39.4432 52.9849 41.9184 51.7821 44.2878 50.3907L44.6002 55.0769L35.6391 58.5798Z" fill="url(#paint2_linear_1_1133)"/>
<path d="M39.4225 39.8776H34.1914C34.053 39.8777 33.9172 39.9147 33.798 39.9847C33.6787 40.0548 33.5803 40.1555 33.5129 40.2763L26.9477 52.0726C26.8821 52.1908 26.8485 52.324 26.8502 52.4592C26.8518 52.5943 26.8888 52.7267 26.9573 52.8432C27.0258 52.9597 27.1236 53.0563 27.2409 53.1234C27.3582 53.1906 27.491 53.2259 27.6261 53.226C27.7678 53.2263 27.9067 53.1874 28.0275 53.1134L39.8239 45.9742C39.9381 45.9051 40.0326 45.8077 40.0981 45.6914C40.1637 45.5751 40.1981 45.4438 40.1981 45.3103V40.6522C40.1976 40.4468 40.1157 40.2499 39.9703 40.1047C39.8249 39.9595 39.628 39.8778 39.4225 39.8776ZM38.646 44.8726L29.7267 50.2699L34.6473 41.4287H38.6433L38.646 44.8726Z" fill="url(#paint3_linear_1_1133)"/>
<path d="M63.4513 17.3338C63.4358 17.1508 63.3562 16.9792 63.2263 16.8494C63.0965 16.7196 62.9249 16.6399 62.742 16.6245C62.4841 16.6045 36.9187 14.8199 25.8544 43.8018C25.8007 43.9419 25.7888 44.0945 25.82 44.2411C25.8513 44.3878 25.9244 44.5223 26.0306 44.6283L29.7214 48.3191C29.8065 48.4044 29.9102 48.4686 30.0244 48.5068C30.1386 48.545 30.2602 48.5561 30.3794 48.5392C30.4986 48.5223 30.6123 48.4778 30.7113 48.4093C30.8104 48.3409 30.8922 48.2503 30.9502 48.1447L34.6483 41.4297H38.6443V44.8807L31.8892 49.1492C31.7906 49.2114 31.7073 49.295 31.6455 49.3938C31.5836 49.4926 31.5448 49.604 31.5319 49.7199C31.519 49.8357 31.5323 49.953 31.5709 50.063C31.6095 50.173 31.6724 50.2729 31.7548 50.3553L35.4457 54.0461C35.5903 54.1907 35.7861 54.2723 35.9906 54.2732C36.0853 54.2735 36.1792 54.2563 36.2676 54.2223C65.254 43.1552 63.4731 17.5908 63.4513 17.3338ZM59.379 31.1073C56.6544 37.8469 50.4216 47.0095 36.1877 52.5903L33.5403 49.9429L39.8358 45.9687C39.9468 45.8988 40.0383 45.8019 40.1018 45.6871C40.1653 45.5723 40.1988 45.4433 40.1991 45.3121V40.6541C40.1991 40.4481 40.1173 40.2506 39.9717 40.105C39.826 39.9594 39.6285 39.8776 39.4226 39.8776H34.1906C34.0516 39.8776 33.9151 39.9149 33.7954 39.9857C33.6758 40.0565 33.5773 40.1581 33.5103 40.2799L30.0892 46.4919L27.4864 43.8881C37.2039 19.1075 57.9059 18.0957 61.931 18.1502C61.925 22.5935 61.0584 26.9936 59.379 31.1073Z" fill="url(#paint4_linear_1_1133)"/>
<path d="M30.2072 50.8738C30.1267 50.7669 30.0199 50.6827 29.8972 50.6294C29.7745 50.5761 29.6401 50.5555 29.507 50.5695C29.5208 50.4365 29.5001 50.3022 29.4468 50.1795C29.3935 50.0569 29.3095 49.95 29.2028 49.8693C28.6173 49.431 27.9403 49.1307 27.2224 48.9907C26.5045 48.8508 25.7642 48.8748 25.057 49.0611C24.294 49.2518 23.5841 49.6124 22.98 50.1159C22.376 50.6195 21.8935 51.2529 21.5686 51.9691L16.9796 62.0689C16.9137 62.2128 16.8934 62.3734 16.9214 62.5292C16.9495 62.6849 17.0244 62.8283 17.1363 62.9402C17.2482 63.0521 17.3917 63.1271 17.5474 63.1551C17.7032 63.1832 17.8638 63.1629 18.0076 63.097L28.1048 58.5079C28.8206 58.183 29.4537 57.7006 29.9569 57.0968C30.4601 56.4929 30.8205 55.7832 31.011 55.0205C31.1981 54.3134 31.223 53.5732 31.0838 52.8551C30.9446 52.1371 30.645 51.4598 30.2072 50.8738ZM29.5098 54.6382C29.3748 55.1746 29.1206 55.6737 28.766 56.0983C28.4114 56.5228 27.9656 56.8619 27.4618 57.0903L19.2482 60.8238L22.9818 52.6102C23.21 52.1063 23.5491 51.6605 23.9736 51.3059C24.3982 50.9513 24.8974 50.6971 25.4338 50.5623C25.7158 50.4904 26.0056 50.4538 26.2966 50.4533C26.7756 50.4521 27.2489 50.556 27.6834 50.7575L26.9442 52.0653C26.8607 52.2131 26.8279 52.3841 26.8508 52.5522C26.8737 52.7204 26.9511 52.8764 27.0711 52.9964C27.1911 53.1164 27.3471 53.1938 27.5153 53.2167C27.6834 53.2396 27.8544 53.2068 28.0022 53.1234L29.31 52.3832C29.6357 53.089 29.7066 53.8859 29.5107 54.6382H29.5098Z" fill="url(#paint5_linear_1_1133)"/>
<path d="M63.4521 17.3356C63.4366 17.1527 63.357 16.9811 63.2271 16.8513C63.0973 16.7215 62.9257 16.6418 62.7428 16.6263C57.2331 16.4514 51.761 17.5928 46.7806 19.9557C46.6671 20.0081 46.568 20.0871 46.4916 20.1861C46.4152 20.285 46.3638 20.4009 46.3417 20.5239C46.3197 20.6469 46.3277 20.7735 46.3651 20.8928C46.4024 21.012 46.468 21.1205 46.5563 21.209L58.8685 33.5213C59.0131 33.6657 59.209 33.7473 59.4134 33.7483C59.4594 33.7482 59.5052 33.7442 59.5505 33.7365C59.6737 33.7145 59.7897 33.663 59.8887 33.5864C59.9877 33.5099 60.0667 33.4106 60.1191 33.2969C62.4839 28.3174 63.6265 22.8454 63.4521 17.3356ZM59.1655 31.6213L48.4544 20.9121C52.7155 19.0965 57.2982 18.1563 61.93 18.1476C61.9234 22.779 60.9832 27.3615 59.1655 31.6213Z" fill="url(#paint6_linear_1_1133)"/>
<path d="M51.1945 28.8822C50.2583 27.9469 49.0658 27.3101 47.7678 27.0524C46.4698 26.7946 45.1244 26.9275 43.9019 27.4342C42.6794 27.9409 41.6345 28.7987 40.8994 29.8991C40.1643 30.9995 39.772 32.2932 39.772 33.6166C39.772 34.94 40.1643 36.2336 40.8994 37.3341C41.6345 38.4345 42.6794 39.2923 43.9019 39.799C45.1244 40.3057 46.4698 40.4386 47.7678 40.1808C49.0658 39.9231 50.2583 39.2863 51.1945 38.3509C52.4484 37.0944 53.1526 35.3917 53.1526 33.6166C53.1526 31.8414 52.4484 30.1388 51.1945 28.8822ZM50.0965 37.2529C49.3774 37.9714 48.4615 38.4605 47.4645 38.6585C46.4675 38.8564 45.4342 38.7544 44.4952 38.3652C43.5562 37.976 42.7537 37.3171 42.189 36.4719C41.6244 35.6267 41.323 34.633 41.323 33.6166C41.323 32.6001 41.6244 31.6065 42.189 30.7613C42.7537 29.916 43.5562 29.2572 44.4952 28.868C45.4342 28.4788 46.4675 28.3767 47.4645 28.5747C48.4615 28.7727 49.3774 29.2618 50.0965 29.9802C51.0595 30.9454 51.6003 32.2532 51.6003 33.6166C51.6003 34.98 51.0595 36.2878 50.0965 37.2529Z" fill="url(#paint7_linear_1_1133)"/>
<path d="M48.0031 35.1605C47.698 35.4645 47.3096 35.6714 46.887 35.7549C46.4644 35.8384 46.0265 35.7947 45.6287 35.6296C45.2308 35.4644 44.8909 35.185 44.6517 34.8267C44.4125 34.4684 44.2849 34.0473 44.2849 33.6166C44.2849 33.1858 44.4125 32.7647 44.6517 32.4064C44.8909 32.0481 45.2308 31.7687 45.6287 31.6036C46.0265 31.4384 46.4644 31.3948 46.887 31.4783C47.3096 31.5617 47.698 31.7686 48.0031 32.0726C48.1495 32.2144 48.3457 32.293 48.5495 32.2914C48.7533 32.2898 48.9483 32.2081 49.0925 32.064C49.2366 31.9199 49.3182 31.7249 49.3199 31.5211C49.3215 31.3173 49.2429 31.121 49.1011 30.9746C48.5788 30.4529 47.9135 30.0977 47.1894 29.954C46.4653 29.8103 45.7148 29.8845 45.0328 30.1672C44.3509 30.4499 43.768 30.9284 43.3579 31.5423C42.9479 32.1562 42.729 32.8779 42.729 33.6161C42.729 34.3544 42.9479 35.076 43.3579 35.6899C43.768 36.3038 44.3509 36.7823 45.0328 37.065C45.7148 37.3478 46.4653 37.4219 47.1894 37.2782C47.9135 37.1345 48.5788 36.7793 49.1011 36.2575C49.2429 36.1112 49.3215 35.9149 49.3199 35.7111C49.3182 35.5073 49.2366 35.3123 49.0925 35.1682C48.9483 35.0241 48.7533 34.9424 48.5495 34.9408C48.3457 34.9392 48.1495 35.0177 48.0031 35.1596V35.1605Z" fill="url(#paint8_linear_1_1133)"/>
</g>
</g>
<defs>
<linearGradient id="paint0_linear_1_1133" x1="-18.8609" y1="82.4777" x2="70.0902" y2="10.3895" gradientUnits="userSpaceOnUse">
<stop stop-color="#03DAF2"/>
<stop offset="1" stop-color="#13E780"/>
</linearGradient>
<linearGradient id="paint1_linear_1_1133" x1="8.30114" y1="69.5537" x2="40.0081" y2="41.3167" gradientUnits="userSpaceOnUse">
<stop stop-color="#03DAF2"/>
<stop offset="1"/>
</linearGradient>
<linearGradient id="paint2_linear_1_1133" x1="21.2324" y1="81.8403" x2="51.268" y2="51.6471" gradientUnits="userSpaceOnUse">
<stop stop-color="#03DAF2"/>
<stop offset="1"/>
</linearGradient>
<linearGradient id="paint3_linear_1_1133" x1="15.6778" y1="74.9039" x2="46.9799" y2="45.2848" gradientUnits="userSpaceOnUse">
<stop stop-color="#03DAF2"/>
<stop offset="1"/>
</linearGradient>
<linearGradient id="paint4_linear_1_1133" x1="-5.73195" y1="115.459" x2="82.6186" y2="31.8558" gradientUnits="userSpaceOnUse">
<stop stop-color="#03DAF2"/>
<stop offset="1"/>
</linearGradient>
<linearGradient id="paint5_linear_1_1133" x1="4.97079" y1="86.336" x2="38.4251" y2="54.6861" gradientUnits="userSpaceOnUse">
<stop stop-color="#03DAF2"/>
<stop offset="1"/>
</linearGradient>
<linearGradient id="paint6_linear_1_1133" x1="31.9835" y1="61.5827" x2="72.1755" y2="23.5494" gradientUnits="userSpaceOnUse">
<stop stop-color="#03DAF2"/>
<stop offset="1"/>
</linearGradient>
<linearGradient id="paint7_linear_1_1133" x1="28.5724" y1="62.0459" x2="59.9592" y2="32.3547" gradientUnits="userSpaceOnUse">
<stop stop-color="#03DAF2"/>
<stop offset="1"/>
</linearGradient>
<linearGradient id="paint8_linear_1_1133" x1="37.2124" y1="49.4762" x2="54.469" y2="35.0629" gradientUnits="userSpaceOnUse">
<stop stop-color="#03DAF2"/>
<stop offset="1"/>
</linearGradient>
<clipPath id="clip0_1_1133">
<rect width="79.92" height="79.92" fill="white" transform="translate(0.399902 0.23999)"/>
</clipPath>
</defs>
</svg>
