<svg width="81" height="80" viewBox="0 0 81 80" fill="none" xmlns="http://www.w3.org/2000/svg">
<g clip-path="url(#clip0_1_1197)">
<mask id="mask0_1_1197" style="mask-type:luminance" maskUnits="userSpaceOnUse" x="0" y="0" width="81" height="80">
<path d="M80.15 0.0600586H0.22998V79.9801H80.15V0.0600586Z" fill="white"/>
</mask>
<g mask="url(#mask0_1_1197)">
<path d="M40.2629 79.9801H40.1175C34.7974 79.9854 29.531 78.9176 24.6332 76.8405C19.8834 74.8379 15.569 71.9293 11.9319 68.2766C8.27792 64.6395 5.36911 60.3241 3.36805 55.5727C1.27976 50.6544 0.212177 45.3633 0.230205 40.0201C0.213543 34.676 1.28166 29.3841 3.36982 24.4648C5.37082 19.7142 8.27965 15.3995 11.9337 11.7635C15.5694 8.10875 19.8845 5.19981 24.6358 3.1997C29.5262 1.12218 34.7863 0.0542531 40.0997 0.0600823H40.2807C45.5931 0.054745 50.8523 1.12266 55.742 3.1997C60.4926 5.2007 64.8072 8.10953 68.4432 11.7635C72.0973 15.3999 75.0066 19.7144 77.0089 24.4648C79.0969 29.3842 80.1656 34.6759 80.1502 40.0201C80.1659 45.3633 79.0975 50.6542 77.0097 55.5727C75.0066 60.3226 72.0974 64.637 68.4441 68.274C64.8081 71.9279 60.4935 74.8368 55.7428 76.8378C50.8471 78.9171 45.5819 79.986 40.2629 79.9801ZM40.1902 3.69281C30.5642 3.7206 21.3408 7.55727 14.534 14.3639C7.7274 21.1707 3.89073 30.3941 3.86293 40.0201C3.88954 49.6465 7.72537 58.8711 14.5323 65.678C21.3392 72.4849 30.5638 76.3207 40.1902 76.3473C49.817 76.3219 59.0418 72.4861 65.849 65.6789C72.6562 58.8717 76.4921 49.6469 76.5174 40.0201C76.4909 30.3937 72.655 21.1691 65.8481 14.3622C59.0412 7.55525 49.8166 3.71941 40.1902 3.69281Z" fill="url(#paint0_linear_1_1197)"/>
<path d="M63.8027 26.3972H16.5773" stroke="url(#paint1_linear_1_1197)" stroke-width="2.72455" stroke-linecap="round" stroke-linejoin="round"/>
<path d="M34.9427 43.0137H16.5773" stroke="url(#paint2_linear_1_1197)" stroke-width="2.72455" stroke-linecap="round" stroke-linejoin="round"/>
<path d="M34.9427 34.2683H16.5773" stroke="url(#paint3_linear_1_1197)" stroke-width="2.72455" stroke-linecap="round" stroke-linejoin="round"/>
<path d="M34.9427 51.759H16.5773" stroke="url(#paint4_linear_1_1197)" stroke-width="2.72455" stroke-linecap="round" stroke-linejoin="round"/>
<path d="M50.0598 50.5099C55.0279 50.5099 59.0552 46.4826 59.0552 41.5146C59.0552 36.5466 55.0279 32.5193 50.0598 32.5193C45.0919 32.5193 41.0646 36.5466 41.0646 41.5146C41.0646 46.4826 45.0919 50.5099 50.0598 50.5099Z" stroke="url(#paint5_linear_1_1197)" stroke-width="2.72455" stroke-linecap="round" stroke-linejoin="round"/>
<path d="M62.0536 53.5083L56.3566 47.8113" stroke="url(#paint6_linear_1_1197)" stroke-width="2.72455" stroke-linecap="round" stroke-linejoin="round"/>
</g>
</g>
<defs>
<linearGradient id="paint0_linear_1_1197" x1="-19.0308" y1="82.2978" x2="69.9202" y2="10.2095" gradientUnits="userSpaceOnUse">
<stop stop-color="#03DAF2"/>
<stop offset="1" stop-color="#13E780"/>
</linearGradient>
<linearGradient id="paint1_linear_1_1197" x1="-nan" y1="-nan" x2="-nan" y2="-nan" gradientUnits="userSpaceOnUse">
<stop stop-color="#03DAF2"/>
<stop offset="1" stop-color="#13E780"/>
</linearGradient>
<linearGradient id="paint2_linear_1_1197" x1="-nan" y1="-nan" x2="-nan" y2="-nan" gradientUnits="userSpaceOnUse">
<stop stop-color="#03DAF2"/>
<stop offset="1" stop-color="#13E780"/>
</linearGradient>
<linearGradient id="paint3_linear_1_1197" x1="-nan" y1="-nan" x2="-nan" y2="-nan" gradientUnits="userSpaceOnUse">
<stop stop-color="#03DAF2"/>
<stop offset="1" stop-color="#13E780"/>
</linearGradient>
<linearGradient id="paint4_linear_1_1197" x1="-nan" y1="-nan" x2="-nan" y2="-nan" gradientUnits="userSpaceOnUse">
<stop stop-color="#03DAF2"/>
<stop offset="1" stop-color="#13E780"/>
</linearGradient>
<linearGradient id="paint5_linear_1_1197" x1="36.7288" y1="51.0317" x2="56.7524" y2="34.8041" gradientUnits="userSpaceOnUse">
<stop stop-color="#03DAF2"/>
<stop offset="1" stop-color="#13E780"/>
</linearGradient>
<linearGradient id="paint6_linear_1_1197" x1="54.9836" y1="53.6735" x2="61.3243" y2="48.5347" gradientUnits="userSpaceOnUse">
<stop stop-color="#03DAF2"/>
<stop offset="1" stop-color="#13E780"/>
</linearGradient>
<clipPath id="clip0_1_1197">
<rect width="79.92" height="79.92" fill="white" transform="translate(0.22998 0.0600586)"/>
</clipPath>
</defs>
</svg>
