<svg width="81" height="81" viewBox="0 0 81 81" fill="none" xmlns="http://www.w3.org/2000/svg">
<g clip-path="url(#clip0_1_1169)">
<mask id="mask0_1_1169" style="mask-type:luminance" maskUnits="userSpaceOnUse" x="0" y="0" width="81" height="81">
<path d="M80.5401 0.150024H0.620117V80.07H80.5401V0.150024Z" fill="white"/>
</mask>
<g mask="url(#mask0_1_1169)">
<path d="M40.653 80.07H40.5076C35.1875 80.0754 29.9212 79.0075 25.0233 76.9304C20.2735 74.9279 15.9591 72.0193 12.322 68.3666C8.66805 64.7295 5.75925 60.4141 3.75819 55.6626C1.66989 50.7444 0.602314 45.4532 0.620342 40.11C0.60368 34.7659 1.67179 29.474 3.75996 24.5548C5.76095 19.8042 8.66979 15.4895 12.3239 11.8535C15.9595 8.19871 20.2746 5.28978 25.026 3.28966C29.9163 1.21214 35.1764 0.144219 40.4898 0.150048H40.6708C45.9833 0.144711 51.2424 1.21262 56.1321 3.28966C60.8827 5.29066 65.1973 8.19949 68.8333 11.8535C72.4874 15.4899 75.3967 19.8044 77.399 24.5548C79.4871 29.4741 80.5557 34.7658 80.5403 40.11C80.556 45.4533 79.4876 50.7442 77.3998 55.6626C75.3967 60.4126 72.4875 64.7269 68.8342 68.3639C65.1982 72.0179 60.8836 74.9268 56.1329 76.9278C51.2373 79.0071 45.972 80.0759 40.653 80.07ZM40.5803 3.78278C30.9543 3.81057 21.7309 7.64724 14.9242 14.4539C8.11754 21.2606 4.28086 30.484 4.25307 40.11C4.27967 49.7365 8.11551 58.9611 14.9224 65.768C21.7294 72.5749 30.9539 76.4107 40.5803 76.4373C50.2071 76.4119 59.432 72.5761 66.2392 65.7689C73.0463 58.9617 76.8822 49.7368 76.9076 40.11C76.8811 30.4837 73.0452 21.2591 66.2383 14.4522C59.4313 7.64521 50.2068 3.80938 40.5803 3.78278Z" fill="url(#paint0_linear_1_1169)"/>
<path d="M27.1844 35.0051V21.8613C27.1844 21.4323 27.0139 21.0209 26.7106 20.7175C26.4072 20.4141 25.9958 20.2437 25.5668 20.2437C25.1376 20.2437 24.7262 20.4141 24.4228 20.7175C24.1195 21.0209 23.949 21.4323 23.949 21.8613V35.0051C22.5571 35.3615 21.3235 36.1711 20.4424 37.306C19.5614 38.441 19.0833 39.8369 19.0833 41.2737C19.0833 42.7105 19.5614 44.1065 20.4424 45.2414C21.3235 46.3764 22.5571 47.186 23.949 47.5423V57.4508C23.949 57.8798 24.1195 58.2912 24.4228 58.5946C24.7262 58.898 25.1376 59.0684 25.5668 59.0684C25.9958 59.0684 26.4072 58.898 26.7106 58.5946C27.0139 58.2912 27.1844 57.8798 27.1844 57.4508V47.5423C28.5763 47.186 29.81 46.3764 30.691 45.2414C31.572 44.1065 32.0502 42.7105 32.0502 41.2737C32.0502 39.8369 31.572 38.441 30.691 37.306C29.81 36.1711 28.5763 35.3615 27.1844 35.0051ZM25.5668 44.5092C24.9269 44.5092 24.3013 44.3194 23.7692 43.9639C23.2372 43.6084 22.8225 43.103 22.5776 42.5119C22.3327 41.9207 22.2686 41.2701 22.3935 40.6425C22.5184 40.015 22.8265 39.4384 23.279 38.986C23.7314 38.5335 24.3079 38.2254 24.9355 38.1005C25.5631 37.9756 26.2137 38.0397 26.8049 38.2846C27.396 38.5295 27.9013 38.9442 28.2569 39.4762C28.6124 40.0083 28.8022 40.6339 28.8022 41.2737C28.8022 42.1318 28.4612 42.9547 27.8545 43.5615C27.2477 44.1682 26.4248 44.5092 25.5668 44.5092ZM41.7437 25.299V21.8613C41.7437 21.4323 41.5733 21.0209 41.2699 20.7175C40.9665 20.4141 40.555 20.2437 40.126 20.2437C39.697 20.2437 39.2855 20.4141 38.9822 20.7175C38.6787 21.0209 38.5084 21.4323 38.5084 21.8613V25.299C37.1164 25.6553 35.8827 26.4649 35.0017 27.5998C34.1207 28.7348 33.6425 30.1308 33.6425 31.5676C33.6425 33.0043 34.1207 34.4003 35.0017 35.5353C35.8827 36.6702 37.1164 37.4798 38.5084 37.8361V57.4508C38.5084 57.8798 38.6787 58.2912 38.9822 58.5946C39.2855 58.898 39.697 59.0684 40.126 59.0684C40.555 59.0684 40.9665 58.898 41.2699 58.5946C41.5733 58.2912 41.7437 57.8798 41.7437 57.4508V37.8361C43.1356 37.4798 44.3693 36.6702 45.2503 35.5353C46.1313 34.4003 46.6095 33.0043 46.6095 31.5676C46.6095 30.1308 46.1313 28.7348 45.2503 27.5998C44.3693 26.4649 43.1356 25.6553 41.7437 25.299ZM40.126 34.8029C39.4861 34.8029 38.8605 34.6132 38.3285 34.2577C37.7964 33.9022 37.3818 33.3968 37.1369 32.8057C36.892 32.2145 36.8279 31.564 36.9528 30.9363C37.0776 30.3088 37.3857 29.7322 37.8382 29.2798C38.2908 28.8273 38.8672 28.5192 39.4948 28.3943C40.1224 28.2694 40.773 28.3336 41.3641 28.5784C41.9554 28.8233 42.4607 29.238 42.8161 29.77C43.1717 30.3021 43.3614 30.9277 43.3614 31.5676C43.3614 32.4256 43.0206 33.2485 42.4138 33.8553C41.8071 34.4621 40.9841 34.8029 40.126 34.8029ZM61.1561 47.7445C61.1548 46.3099 60.6776 44.9163 59.7994 43.782C58.9212 42.6476 57.6915 41.8366 56.303 41.4759V21.8613C56.303 21.4323 56.1325 21.0209 55.8292 20.7175C55.5258 20.4141 55.1144 20.2437 54.6853 20.2437C54.2562 20.2437 53.8448 20.4141 53.5414 20.7175C53.2381 21.0209 53.0676 21.4323 53.0676 21.8613V41.4759C51.6757 41.8323 50.442 42.6419 49.561 43.7768C48.68 44.9118 48.2018 46.3077 48.2018 47.7445C48.2018 49.1813 48.68 50.5773 49.561 51.7122C50.442 52.8472 51.6757 53.6567 53.0676 54.0131V57.4508C53.0676 57.8798 53.2381 58.2912 53.5414 58.5946C53.8448 58.898 54.2562 59.0684 54.6853 59.0684C55.1144 59.0684 55.5258 58.898 55.8292 58.5946C56.1325 58.2912 56.303 57.8798 56.303 57.4508V54.0131C57.6915 53.6525 58.9212 52.8415 59.7994 51.7071C60.6776 50.5727 61.1548 49.1791 61.1561 47.7445ZM54.6853 50.98C54.0454 50.98 53.4199 50.7902 52.8878 50.4347C52.3558 50.0791 51.9411 49.5738 51.6962 48.9827C51.4513 48.3915 51.3872 47.7409 51.5121 47.1133C51.6369 46.4857 51.9451 45.9092 52.3975 45.4568C52.85 45.0043 53.4265 44.6962 54.0541 44.5713C54.6817 44.4464 55.3322 44.5105 55.9235 44.7554C56.5146 45.0003 57.0199 45.415 57.3755 45.947C57.7309 46.4791 57.9207 47.1047 57.9207 47.7445C57.9207 48.6026 57.5798 49.4255 56.973 50.0323C56.3663 50.639 55.5434 50.98 54.6853 50.98Z" fill="url(#paint1_linear_1_1169)"/>
</g>
</g>
<defs>
<linearGradient id="paint0_linear_1_1169" x1="-18.6407" y1="82.3878" x2="70.3104" y2="10.2995" gradientUnits="userSpaceOnUse">
<stop stop-color="#03DAF2"/>
<stop offset="1" stop-color="#13E780"/>
</linearGradient>
<linearGradient id="paint1_linear_1_1169" x1="8.94369" y1="60.1943" x2="52.7439" y2="21.7279" gradientUnits="userSpaceOnUse">
<stop stop-color="#03DAF2"/>
<stop offset="1" stop-color="#13E780"/>
</linearGradient>
<clipPath id="clip0_1_1169">
<rect width="79.92" height="79.92" fill="white" transform="translate(0.620117 0.150024)"/>
</clipPath>
</defs>
</svg>
