<svg width="81" height="80" viewBox="0 0 81 80" fill="none" xmlns="http://www.w3.org/2000/svg">
<g clip-path="url(#clip0_1_1211)">
<mask id="mask0_1_1211" style="mask-type:luminance" maskUnits="userSpaceOnUse" x="0" y="0" width="81" height="80">
<path d="M80.5401 0.0600586H0.620117V79.9801H80.5401V0.0600586Z" fill="white"/>
</mask>
<g mask="url(#mask0_1_1211)">
<path d="M40.653 79.9801H40.5076C35.1875 79.9854 29.9212 78.9176 25.0233 76.8405C20.2735 74.8379 15.9591 71.9293 12.322 68.2766C8.66805 64.6395 5.75925 60.3241 3.75819 55.5727C1.66989 50.6544 0.602314 45.3633 0.620342 40.0201C0.60368 34.676 1.67179 29.3841 3.75996 24.4648C5.76095 19.7142 8.66979 15.3995 12.3239 11.7635C15.9595 8.10875 20.2746 5.19981 25.026 3.1997C29.9163 1.12218 35.1764 0.0542531 40.4898 0.0600823H40.6708C45.9833 0.054745 51.2424 1.12266 56.1321 3.1997C60.8827 5.2007 65.1973 8.10953 68.8333 11.7635C72.4874 15.3999 75.3967 19.7144 77.399 24.4648C79.4871 29.3842 80.5557 34.6759 80.5403 40.0201C80.556 45.3633 79.4876 50.6542 77.3998 55.5727C75.3967 60.3226 72.4875 64.637 68.8342 68.274C65.1982 71.9279 60.8836 74.8368 56.1329 76.8378C51.2373 78.9171 45.972 79.986 40.653 79.9801ZM40.5803 3.69281C30.9543 3.7206 21.7309 7.55727 14.9242 14.3639C8.11754 21.1707 4.28086 30.3941 4.25307 40.0201C4.27967 49.6465 8.11551 58.8711 14.9224 65.678C21.7294 72.4849 30.9539 76.3207 40.5803 76.3473C50.2071 76.3219 59.432 72.4861 66.2392 65.6789C73.0463 58.8717 76.8822 49.6469 76.9076 40.0201C76.8811 30.3937 73.0452 21.1691 66.2383 14.3622C59.4313 7.55525 50.2068 3.71941 40.5803 3.69281Z" fill="url(#paint0_linear_1_1211)"/>
<path d="M26.9573 32.0461C28.2634 34.3371 28.9503 36.9288 28.9503 39.5659C28.9503 42.2031 28.2634 44.7947 26.9573 47.0856" stroke="url(#paint1_linear_1_1211)" stroke-width="2.72455" stroke-linecap="round" stroke-linejoin="round"/>
<path d="M34.0276 27.7346C36.0691 31.3436 37.1419 35.4196 37.1419 39.566C37.1419 43.7124 36.0691 47.7883 34.0276 51.3973" stroke="url(#paint2_linear_1_1211)" stroke-width="2.72455" stroke-linecap="round" stroke-linejoin="round"/>
<path d="M41.0774 23.4231C43.8923 28.3367 45.375 33.9004 45.3786 39.5633C45.3822 45.2262 43.9066 50.7918 41.0978 55.709" stroke="url(#paint3_linear_1_1211)" stroke-width="2.72455" stroke-linecap="round" stroke-linejoin="round"/>
<path d="M48.1475 19.1318C51.7027 25.3552 53.5727 32.3986 53.5727 39.5659C53.5727 46.7333 51.7027 53.7766 48.1475 60" stroke="url(#paint4_linear_1_1211)" stroke-width="2.72455" stroke-linecap="round" stroke-linejoin="round"/>
</g>
</g>
<defs>
<linearGradient id="paint0_linear_1_1211" x1="-18.6407" y1="82.2978" x2="70.3104" y2="10.2095" gradientUnits="userSpaceOnUse">
<stop stop-color="#03DAF2"/>
<stop offset="1" stop-color="#13E780"/>
</linearGradient>
<linearGradient id="paint1_linear_1_1211" x1="26.4769" y1="47.5217" x2="30.1102" y2="47.1316" gradientUnits="userSpaceOnUse">
<stop stop-color="#03DAF2"/>
<stop offset="1" stop-color="#13E780"/>
</linearGradient>
<linearGradient id="paint2_linear_1_1211" x1="33.2771" y1="52.0835" x2="38.9553" y2="51.4779" gradientUnits="userSpaceOnUse">
<stop stop-color="#03DAF2"/>
<stop offset="1" stop-color="#13E780"/>
</linearGradient>
<linearGradient id="paint3_linear_1_1211" x1="40.0408" y1="56.6453" x2="47.8809" y2="55.7988" gradientUnits="userSpaceOnUse">
<stop stop-color="#03DAF2"/>
<stop offset="1" stop-color="#13E780"/>
</linearGradient>
<linearGradient id="paint4_linear_1_1211" x1="46.84" y1="61.1852" x2="56.7297" y2="60.1213" gradientUnits="userSpaceOnUse">
<stop stop-color="#03DAF2"/>
<stop offset="1" stop-color="#13E780"/>
</linearGradient>
<clipPath id="clip0_1_1211">
<rect width="79.92" height="79.92" fill="white" transform="translate(0.620117 0.0600586)"/>
</clipPath>
</defs>
</svg>
